M48
; DRILL file {KiCad (6.0.6)} date Thu Nov 10 12:47:15 2022
; FORMAT={-:-/ absolute / metric / decimal}
; #@! TF.CreationDate,2022-11-10T12:47:15+01:00
; #@! TF.GenerationSoftware,Kicad,Pcbnew,(6.0.6)
; #@! TF.FileFunction,Plated,1,2,PTH
FMAT,2
METRIC
; #@! TA.AperFunction,Plated,PTH,ViaDrill
T1C0.300
; #@! TA.AperFunction,Plated,PTH,ComponentDrill
T2C1.000
; #@! TA.AperFunction,Plated,PTH,ComponentDrill
T3C1.016
; #@! TA.AperFunction,Plated,PTH,ComponentDrill
T4C1.250
; #@! TA.AperFunction,Plated,PTH,ComponentDrill
T5C1.270
; #@! TA.AperFunction,Plated,PTH,ComponentDrill
T6C1.300
; #@! TA.AperFunction,Plated,PTH,ComponentDrill
T7C3.200
%
G90
G05
T1
X34.65Y-114.966
X34.826Y-69.285
X37.392Y-69.285
X38.15Y-110.55
X38.678Y-101.414
X38.7Y-107.2
X38.751Y-99.69
X38.875Y-110.55
X38.9Y-109.85
X39.6Y-109.825
X39.623Y-109.007
X39.731Y-60.18
X39.908Y-69.285
X39.941Y-53.426
X42.482Y-53.426
X42.486Y-69.285
X45.023Y-53.426
X47.592Y-53.447
X51.828Y-83.589
X54.803Y-100.364
X57.753Y-117.039
X57.771Y-118.251
X61.759Y-53.89
X61.759Y-56.565
X65.224Y-51.376
X72.528Y-68.564
X73.703Y-85.539
X74.709Y-53.865
X74.709Y-56.94
X74.716Y-52.811
X74.903Y-102.489
X78.075Y-47.0
X93.403Y-57.964
X93.403Y-74.964
X93.403Y-91.989
X99.85Y-50.85
X103.155Y-59.557
X103.155Y-59.557
X103.155Y-59.557
X106.35Y-121.1
X106.378Y-116.472
X111.403Y-66.389
X111.403Y-83.389
X111.403Y-100.364
X117.875Y-50.5
X118.836Y-105.343
X120.68Y-116.12
X121.118Y-113.094
X122.937Y-51.345
X122.937Y-53.898
X126.6Y-69.1
X126.6Y-86.075
X126.675Y-103.125
X126.975Y-124.175
X127.226Y-116.672
X133.575Y-108.0
X134.784Y-108.365
X134.79Y-67.19
X134.79Y-74.4
X134.79Y-81.59
X134.79Y-88.78
X134.79Y-96.0
X137.125Y-107.975
X137.234Y-109.715
X138.359Y-108.015
X138.37Y-67.2
X138.37Y-74.4
X138.37Y-81.6
X138.37Y-88.77
X138.37Y-95.97
X140.675Y-108.0
X141.859Y-108.415
X141.865Y-67.185
X141.865Y-74.385
X141.865Y-81.585
X141.865Y-88.765
X141.865Y-95.985
X143.125Y-132.25
X144.89Y-125.56
X147.069Y-125.58
X158.109Y-108.415
X158.11Y-67.18
X158.11Y-74.38
X158.11Y-81.6
X158.11Y-88.8
X158.11Y-96.02
X159.34Y-108.03
X160.569Y-115.876
X161.659Y-108.04
X161.66Y-67.19
X161.66Y-74.4
X161.66Y-81.61
X161.66Y-88.82
X161.66Y-96.01
X162.86Y-107.99
X165.159Y-108.34
X165.17Y-74.38
X165.17Y-81.58
X165.17Y-88.81
X165.17Y-95.99
X165.18Y-67.19
X165.909Y-109.715
X166.41Y-107.99
X169.538Y-128.963
X170.972Y-125.036
X171.984Y-117.89
X175.614Y-57.372
X178.75Y-112.209
X179.39Y-55.793
X181.71Y-56.3
X183.204Y-56.93
X187.028Y-69.124
X187.028Y-86.214
X187.028Y-103.234
X188.895Y-123.998
X193.481Y-51.333
X194.647Y-102.481
X194.686Y-68.6
X194.695Y-85.553
X205.028Y-66.494
X205.028Y-83.494
X205.028Y-100.494
X209.575Y-47.039
X210.045Y-120.229
X222.91Y-91.79
X223.028Y-57.994
X223.028Y-74.994
X228.09Y-54.033
X228.245Y-57.319
X233.459Y-54.44
X234.655Y-104.303
X235.038Y-51.368
X241.428Y-101.794
X242.428Y-84.894
X243.728Y-67.894
X247.023Y-101.791
X247.959Y-54.515
X249.161Y-51.572
X250.16Y-53.16
X252.466Y-65.781
X255.001Y-65.781
X257.537Y-65.781
X258.428Y-116.294
X260.072Y-65.799
X261.43Y-96.21
X263.137Y-114.044
X264.328Y-82.894
X264.475Y-99.525
X266.87Y-95.65
X266.918Y-97.088
X267.895Y-97.028
X268.41Y-96.31
X269.313Y-105.994
X276.628Y-111.894
T2
X33.58Y-51.98
X33.58Y-67.22
X36.12Y-51.98
X36.12Y-67.22
X38.66Y-51.98
X38.66Y-67.22
X41.2Y-51.98
X41.2Y-67.22
X43.74Y-51.98
X43.74Y-67.22
X46.28Y-51.98
X46.28Y-67.22
X48.82Y-51.98
X48.82Y-67.22
X120.5Y-51.35
X125.5Y-51.35
X174.5Y-51.35
X179.5Y-51.35
X251.18Y-51.98
X251.18Y-67.22
X253.72Y-51.98
X253.72Y-67.22
X256.26Y-51.98
X256.26Y-67.22
X258.8Y-51.98
X258.8Y-67.22
X261.34Y-51.98
X261.34Y-67.22
X263.88Y-51.98
X263.88Y-67.22
X266.42Y-51.98
X266.42Y-67.22
T3
X32.628Y-58.33
X32.628Y-60.87
X35.168Y-58.33
X35.168Y-60.87
X38.978Y-64.045
X40.883Y-64.045
X259.117Y-55.155
X261.022Y-55.155
X264.832Y-58.33
X264.832Y-60.87
X267.372Y-58.33
X267.372Y-60.87
T4
X87.0Y-99.0
X92.0Y-99.0
X208.0Y-99.0
X213.0Y-99.0
T5
X26.888Y-113.7
X32.177Y-114.9
X40.086Y-84.608
X43.038Y-101.35
X45.375Y-85.808
X45.99Y-118.092
X48.327Y-102.55
X51.279Y-119.292
X59.808Y-68.586
X60.994Y-85.545
X62.18Y-102.504
X64.942Y-70.332
X66.128Y-87.291
X67.314Y-104.25
X80.129Y-57.968
X80.129Y-74.968
X80.129Y-91.968
X85.129Y-60.068
X85.129Y-77.068
X85.129Y-94.068
X93.103Y-121.114
X98.103Y-123.214
X98.129Y-66.404
X98.129Y-83.405
X98.129Y-100.405
X103.129Y-68.504
X103.129Y-85.505
X103.129Y-102.505
X112.214Y-122.466
X116.129Y-69.125
X116.129Y-86.125
X116.129Y-103.125
X116.501Y-125.788
X121.129Y-71.225
X121.129Y-88.225
X121.129Y-105.225
X130.247Y-128.555
X133.528Y-132.874
X160.997Y-133.555
X166.377Y-132.874
X173.753Y-69.125
X173.753Y-86.21
X173.753Y-103.21
X178.031Y-125.054
X178.753Y-71.225
X178.753Y-88.31
X178.753Y-105.31
X183.405Y-125.788
X191.753Y-66.404
X191.753Y-83.405
X191.753Y-100.405
X196.753Y-68.504
X196.753Y-85.505
X196.753Y-102.505
X196.778Y-121.114
X201.778Y-123.214
X209.753Y-57.968
X209.753Y-74.968
X209.753Y-91.968
X214.753Y-60.068
X214.753Y-77.068
X214.753Y-94.068
X227.664Y-101.813
X228.85Y-84.854
X230.036Y-67.895
X232.505Y-104.257
X233.691Y-87.298
X234.877Y-70.339
X244.065Y-116.372
X247.017Y-99.63
X248.624Y-119.309
X249.969Y-82.888
X251.576Y-102.567
X254.528Y-85.825
X263.119Y-111.963
X267.678Y-114.9
T6
X119.5Y-53.85
X126.5Y-53.85
X173.5Y-53.85
X180.5Y-53.85
T7
X34.3Y-121.014
X57.0Y-52.7
X131.2Y-52.7
X139.5Y-112.0
X160.5Y-112.0
X168.8Y-52.7
X243.0Y-52.7
X265.7Y-121.0
T2
X136.1Y-61.25G85X136.1Y-61.75
G05
X140.3Y-52.75G85X140.3Y-53.25
G05
X140.3Y-55.75G85X140.3Y-56.25
G05
X140.3Y-59.75G85X140.3Y-60.25
G05
X159.7Y-61.25G85X159.7Y-61.75
G05
X163.9Y-52.75G85X163.9Y-53.25
G05
X163.9Y-55.75G85X163.9Y-56.25
G05
X163.9Y-59.75G85X163.9Y-60.25
G05
T0
M30
