M48
; DRILL file {KiCad (6.0.6)} date Thu Nov 10 12:47:15 2022
; FORMAT={-:-/ absolute / metric / decimal}
; #@! TF.CreationDate,2022-11-10T12:47:15+01:00
; #@! TF.GenerationSoftware,Kicad,Pcbnew,(6.0.6)
; #@! TF.FileFunction,NonPlated,1,2,NPTH
FMAT,2
METRIC
; #@! TA.AperFunction,NonPlated,NPTH,ComponentDrill
T1C0.500
; #@! TA.AperFunction,NonPlated,NPTH,ComponentDrill
T2C0.700
; #@! TA.AperFunction,NonPlated,NPTH,ComponentDrill
T3C1.200
; #@! TA.AperFunction,NonPlated,NPTH,ComponentDrill
T4C1.702
; #@! TA.AperFunction,NonPlated,NPTH,ComponentDrill
T5C3.000
; #@! TA.AperFunction,NonPlated,NPTH,ComponentDrill
T6C3.429
%
G90
G05
T1
X143.598Y-107.434
X143.598Y-108.174
X143.598Y-108.914
X143.598Y-109.654
X143.598Y-110.394
X143.598Y-111.134
X143.628Y-65.034
X143.628Y-65.774
X143.628Y-66.514
X143.628Y-67.254
X143.628Y-67.994
X143.628Y-68.734
X156.393Y-107.434
X156.393Y-108.174
X156.393Y-108.914
X156.393Y-109.654
X156.393Y-110.394
X156.393Y-111.134
X156.423Y-65.034
X156.423Y-65.774
X156.423Y-66.514
X156.423Y-67.254
X156.423Y-67.994
X156.423Y-68.734
T2
X63.75Y-51.35
X66.75Y-51.4
X233.55Y-51.35
X236.55Y-51.4
T3
X138.2Y-51.2
X138.2Y-58.2
X161.8Y-51.2
X161.8Y-58.2
T4
X25.736Y-110.044
X36.569Y-108.134
X38.934Y-80.952
X41.886Y-97.694
X44.838Y-114.436
X49.767Y-79.042
X52.719Y-95.784
X55.671Y-112.526
X59.044Y-64.83
X60.23Y-81.789
X61.416Y-98.748
X70.017Y-64.063
X71.203Y-81.022
X72.389Y-97.981
X79.629Y-54.168
X79.629Y-71.168
X79.629Y-88.168
X90.629Y-54.168
X90.629Y-71.168
X90.629Y-88.168
X92.603Y-117.314
X97.629Y-62.604
X97.629Y-79.605
X97.629Y-96.605
X103.603Y-117.314
X108.629Y-62.604
X108.629Y-79.605
X108.629Y-96.605
X112.715Y-118.666
X115.629Y-65.325
X115.629Y-82.325
X115.629Y-99.325
X123.34Y-121.513
X126.629Y-65.325
X126.629Y-82.325
X126.629Y-99.325
X131.714Y-125.014
X141.241Y-130.514
X158.664Y-130.514
X168.19Y-125.014
X173.253Y-65.325
X173.253Y-82.41
X173.253Y-99.41
X176.565Y-121.513
X184.253Y-65.325
X184.253Y-82.41
X184.253Y-99.41
X187.19Y-118.666
X191.253Y-62.604
X191.253Y-79.605
X191.253Y-96.605
X196.278Y-117.314
X202.253Y-62.604
X202.253Y-79.605
X202.253Y-96.605
X207.278Y-117.314
X209.253Y-54.168
X209.253Y-71.168
X209.253Y-88.168
X220.253Y-54.168
X220.253Y-71.168
X220.253Y-88.168
X227.43Y-97.987
X228.616Y-81.029
X229.802Y-64.07
X238.403Y-98.755
X239.589Y-81.796
X240.775Y-64.837
X244.232Y-112.543
X247.184Y-95.801
X250.136Y-79.059
X255.065Y-114.453
X258.017Y-97.711
X260.969Y-80.969
X263.286Y-108.134
X274.119Y-110.044
T5
X30.119Y-103.23
X35.425Y-104.528
X43.317Y-74.138
X46.269Y-90.88
X48.623Y-75.436
X49.221Y-107.622
X51.575Y-92.178
X54.527Y-108.92
X64.116Y-58.511
X65.302Y-75.47
X66.488Y-92.429
X69.257Y-60.357
X70.443Y-77.316
X71.629Y-94.275
X85.129Y-48.218
X85.129Y-65.218
X85.129Y-82.218
X90.129Y-50.418
X90.129Y-67.418
X90.129Y-84.418
X98.103Y-111.364
X103.103Y-113.564
X103.129Y-56.654
X103.129Y-73.655
X103.129Y-90.655
X108.129Y-58.854
X108.129Y-75.855
X108.129Y-92.855
X119.568Y-114.342
X121.129Y-59.375
X121.129Y-76.375
X121.129Y-93.375
X123.828Y-117.761
X126.129Y-61.575
X126.129Y-78.575
X126.129Y-95.575
X139.453Y-122.611
X142.683Y-127.017
X160.452Y-122.611
X165.882Y-122.017
X178.753Y-59.375
X178.753Y-76.46
X178.753Y-93.46
X180.338Y-114.342
X183.753Y-61.575
X183.753Y-78.66
X183.753Y-95.66
X185.737Y-115.173
X196.753Y-56.654
X196.753Y-73.655
X196.753Y-90.655
X201.753Y-58.854
X201.753Y-75.855
X201.753Y-92.855
X201.778Y-111.364
X206.778Y-113.564
X214.753Y-48.218
X214.753Y-65.218
X214.753Y-82.218
X219.753Y-50.418
X219.753Y-67.418
X219.753Y-84.418
X233.332Y-92.435
X234.518Y-75.477
X235.703Y-58.518
X238.166Y-94.979
X239.352Y-78.02
X240.538Y-61.061
X250.682Y-107.639
X253.634Y-90.897
X255.224Y-110.673
X256.586Y-74.155
X258.176Y-93.932
X261.128Y-77.19
X269.736Y-103.23
X274.278Y-106.265
T6
X31.153Y-109.089
X44.351Y-79.997
X47.303Y-96.739
X50.255Y-113.481
X64.531Y-64.447
X65.717Y-81.406
X66.903Y-98.364
X85.129Y-54.168
X85.129Y-71.168
X85.129Y-88.168
X98.103Y-117.314
X103.129Y-62.604
X103.129Y-79.605
X103.129Y-96.605
X118.028Y-120.089
X121.129Y-65.325
X121.129Y-82.325
X121.129Y-99.325
X136.478Y-127.764
X163.427Y-127.764
X178.753Y-65.325
X178.753Y-82.41
X178.753Y-99.41
X181.878Y-120.089
X196.753Y-62.604
X196.753Y-79.605
X196.753Y-96.605
X201.778Y-117.314
X214.753Y-54.168
X214.753Y-71.168
X214.753Y-88.168
X232.917Y-98.371
X234.103Y-81.412
X235.288Y-64.453
X249.648Y-113.498
X252.601Y-96.756
X255.553Y-80.014
X268.703Y-109.089
T0
M30
