G04 #@! TF.GenerationSoftware,KiCad,Pcbnew,(6.0.6)*
G04 #@! TF.CreationDate,2022-11-10T12:46:59+01:00*
G04 #@! TF.ProjectId,totem_0_3,746f7465-6d5f-4305-9f33-2e6b69636164,0.3*
G04 #@! TF.SameCoordinates,Original*
G04 #@! TF.FileFunction,Paste,Bot*
G04 #@! TF.FilePolarity,Positive*
%FSLAX46Y46*%
G04 Gerber Fmt 4.6, Leading zero omitted, Abs format (unit mm)*
G04 Created by KiCad (PCBNEW (6.0.6)) date 2022-11-10 12:46:59*
%MOMM*%
%LPD*%
G01*
G04 APERTURE LIST*
G04 Aperture macros list*
%AMRotRect*
0 Rectangle, with rotation*
0 The origin of the aperture is its center*
0 $1 length*
0 $2 width*
0 $3 Rotation angle, in degrees counterclockwise*
0 Add horizontal line*
21,1,$1,$2,0,0,$3*%
G04 Aperture macros list end*
%ADD10RotRect,2.600000X2.600000X10.000000*%
%ADD11R,2.600000X2.600000*%
%ADD12RotRect,2.600000X2.600000X4.000000*%
%ADD13RotRect,2.600000X2.600000X356.000000*%
%ADD14RotRect,2.600000X2.600000X350.000000*%
%ADD15RotRect,2.600000X2.600000X345.000000*%
%ADD16RotRect,2.600000X2.600000X15.000000*%
%ADD17RotRect,2.600000X2.600000X30.000000*%
%ADD18RotRect,2.600000X2.600000X330.000000*%
G04 APERTURE END LIST*
D10*
X45996171Y-108190391D03*
X57752726Y-108351331D03*
D11*
X94828165Y-111364348D03*
X106378165Y-113564348D03*
X117854205Y-93374989D03*
X129404205Y-95574989D03*
D12*
X60848741Y-58739677D03*
X72524070Y-60128631D03*
D11*
X81854229Y-65218188D03*
X93404229Y-67418188D03*
X175478285Y-93460067D03*
X187028285Y-95660067D03*
D13*
X230064718Y-92207033D03*
X241433118Y-95207362D03*
D10*
X26894113Y-103798440D03*
X38650668Y-103959380D03*
D14*
X253360526Y-73586044D03*
X264353030Y-77758258D03*
D15*
X116404131Y-113494457D03*
X126991173Y-118608854D03*
D11*
X81854229Y-48217968D03*
X93404229Y-50417968D03*
D14*
X266510526Y-102661044D03*
X277503030Y-106833258D03*
D11*
X193478205Y-90654887D03*
X205028205Y-92854887D03*
D16*
X177174185Y-115189722D03*
X188900030Y-114325399D03*
D17*
X157615970Y-124248997D03*
X168718563Y-120379253D03*
D13*
X231250594Y-75248225D03*
X242618994Y-78248554D03*
D11*
X175478245Y-59374549D03*
X187028245Y-61574549D03*
X117854205Y-59374549D03*
X129404205Y-61574549D03*
X99854241Y-56654447D03*
X111404241Y-58854447D03*
D12*
X62034617Y-75698485D03*
X73709946Y-77087439D03*
D11*
X193478205Y-73654667D03*
X205028205Y-75854667D03*
X99854241Y-73654667D03*
X111404241Y-75854667D03*
D14*
X250408467Y-90327993D03*
X261400971Y-94500207D03*
D12*
X63220492Y-92657294D03*
X74895821Y-94046248D03*
D18*
X136616332Y-120973997D03*
X145518925Y-128654253D03*
D11*
X211478165Y-65218188D03*
X223028165Y-67418188D03*
D10*
X40092057Y-74706493D03*
X51848612Y-74867433D03*
D11*
X211478165Y-48217968D03*
X223028165Y-50417968D03*
D13*
X232436469Y-58289416D03*
X243804869Y-61289745D03*
D14*
X247456412Y-107069941D03*
X258448916Y-111242155D03*
D11*
X198503165Y-111364348D03*
X210053165Y-113564348D03*
X211478165Y-82218408D03*
X223028165Y-84418408D03*
X99854241Y-90654887D03*
X111404241Y-92854887D03*
X117854205Y-76374769D03*
X129404205Y-78574769D03*
X81854229Y-82218408D03*
X93404229Y-84418408D03*
D10*
X43044113Y-91448440D03*
X54800668Y-91609380D03*
D11*
X193478205Y-56654447D03*
X205028205Y-58854447D03*
X175478285Y-76459847D03*
X187028285Y-78659847D03*
M02*
