%FSLAX45Y45*%
G04 Gerber Fmt 4.5, Leading zero omitted, Abs format (unit mm)*
G04 Created by KiCad (PCBNEW (6.0.6)) date 2022-11-10 12:47:21*
%MOMM*%
%LPD*%
G01*
G04 APERTURE LIST*
%ADD10C,0.010000*%
%TA.AperFunction,Profile*%
%ADD11C,0.010000*%
%TD*%
%TA.AperFunction,Profile*%
%ADD12C,0.100000*%
%TD*%
%ADD13C,0.200000*%
%ADD14C,0.050000*%
%ADD15C,0.070000*%
%ADD16C,0.120000*%
%ADD17C,0.170180*%
%ADD18C,0.300000*%
%ADD19C,0.342900*%
G04 APERTURE END LIST*
D10*
X14860090Y-12465554D02*
X14326690Y-12157579D01*
X2387278Y-11924041D02*
X3063200Y-11804802D01*
D11*
X15397256Y-6988435D02*
X14607756Y-6988434D01*
D10*
X15661796Y-12157579D02*
X15128396Y-12465554D01*
X7589688Y-4579561D02*
X7589688Y-4965500D01*
X3163036Y-12459204D02*
X8886150Y-12459204D01*
X20550231Y-4579561D02*
X20550231Y-4965500D01*
X9439655Y-4965500D02*
X9439655Y-4579561D01*
X9410021Y-4549928D02*
X7619321Y-4549928D01*
D11*
X15647256Y-6988434D02*
X15662500Y-6988400D01*
X14327041Y-10628435D02*
X14354757Y-10628435D01*
D10*
X7619321Y-4549928D02*
X7617809Y-4549967D01*
X7616314Y-4550082D01*
X7614840Y-4550273D01*
X7613389Y-4550536D01*
X7611962Y-4550869D01*
X7610561Y-4551272D01*
X7609188Y-4551741D01*
X7607845Y-4552276D01*
X7606534Y-4552874D01*
X7605258Y-4553532D01*
X7604017Y-4554250D01*
X7602814Y-4555025D01*
X7601651Y-4555856D01*
X7600529Y-4556739D01*
X7599451Y-4557675D01*
X7598419Y-4558659D01*
X7597435Y-4559691D01*
X7596500Y-4560769D01*
X7595616Y-4561891D01*
X7594785Y-4563054D01*
X7594010Y-4564257D01*
X7593293Y-4565497D01*
X7592634Y-4566774D01*
X7592036Y-4568085D01*
X7591502Y-4569428D01*
X7591032Y-4570801D01*
X7590630Y-4572202D01*
X7590296Y-4573629D01*
X7590033Y-4575080D01*
X7589843Y-4576554D01*
X7589727Y-4578048D01*
X7589688Y-4579561D01*
X18442390Y-12845496D02*
X18523741Y-12824055D01*
X18602615Y-12803953D01*
X18679092Y-12785147D01*
X18753251Y-12767595D01*
X18825172Y-12751253D01*
X18894936Y-12736077D01*
X18962622Y-12722026D01*
X19028310Y-12709054D01*
X19092080Y-12697120D01*
X19154011Y-12686179D01*
X19214184Y-12676189D01*
X19272678Y-12667107D01*
X19329573Y-12658889D01*
X19384949Y-12651492D01*
X19438886Y-12644873D01*
X19491463Y-12638989D01*
X19542761Y-12633796D01*
X19592860Y-12629251D01*
X19641838Y-12625312D01*
X19689777Y-12621934D01*
X19736755Y-12619074D01*
X19782854Y-12616690D01*
X19828151Y-12614739D01*
X19872728Y-12613176D01*
X19916664Y-12611958D01*
X19960040Y-12611044D01*
X20002934Y-12610388D01*
X20045427Y-12609949D01*
X20087598Y-12609682D01*
X20129528Y-12609546D01*
X20171296Y-12609495D01*
X20212982Y-12609488D01*
X16003285Y-13981088D02*
X16013211Y-13975356D01*
X16024626Y-13968764D01*
X16037472Y-13961347D01*
X16051691Y-13953137D01*
X16067225Y-13944170D01*
X16084013Y-13934479D01*
X16101999Y-13924096D01*
X16121124Y-13913057D01*
X16141328Y-13901395D01*
X16162554Y-13889143D01*
X16184743Y-13876335D01*
X16207837Y-13863005D01*
X16231776Y-13849187D01*
X16256503Y-13834915D01*
X16281959Y-13820221D01*
X16308085Y-13805140D01*
X16334823Y-13789706D01*
X16362114Y-13773952D01*
X16389900Y-13757912D01*
X16418123Y-13741620D01*
X16446723Y-13725109D01*
X16475642Y-13708413D01*
X16504822Y-13691566D01*
X16534205Y-13674601D01*
X16563731Y-13657553D01*
X16593342Y-13640455D01*
X16622979Y-13623341D01*
X16652585Y-13606244D01*
X16682100Y-13589198D01*
X16711467Y-13572237D01*
X16740626Y-13555395D01*
X16769519Y-13538705D01*
D11*
X15647256Y-6388435D02*
X15662495Y-6388435D01*
D10*
X27928937Y-10234941D02*
X27929162Y-10233423D01*
X27929311Y-10231913D01*
X27929383Y-10230414D01*
X27929382Y-10228927D01*
X27929307Y-10227455D01*
X27929162Y-10225999D01*
X27928946Y-10224562D01*
X27928661Y-10223145D01*
X27928310Y-10221751D01*
X27927892Y-10220382D01*
X27927411Y-10219040D01*
X27926866Y-10217727D01*
X27926260Y-10216444D01*
X27925593Y-10215195D01*
X27924869Y-10213981D01*
X27924086Y-10212804D01*
X27923248Y-10211666D01*
X27922356Y-10210570D01*
X27921411Y-10209517D01*
X27920414Y-10208510D01*
X27919367Y-10207550D01*
X27918271Y-10206640D01*
X27917128Y-10205781D01*
X27915939Y-10204977D01*
X27914706Y-10204228D01*
X27913430Y-10203537D01*
X27912112Y-10202906D01*
X27910754Y-10202336D01*
X27909357Y-10201831D01*
X27907923Y-10201393D01*
X27906453Y-10201022D01*
X27904948Y-10200722D01*
X14327390Y-6388435D02*
X14327390Y-6384065D01*
X14327390Y-6372500D01*
X14327390Y-6354220D01*
X14327390Y-6329708D01*
X14327390Y-6299443D01*
X14327390Y-6263907D01*
X14327390Y-6223581D01*
X14327390Y-6178945D01*
X14327390Y-6130481D01*
X14327390Y-6078669D01*
X14327390Y-6023991D01*
X14327390Y-5966928D01*
X14327390Y-5907959D01*
X14327390Y-5847567D01*
X14327390Y-5786233D01*
X14327390Y-5724436D01*
X14327390Y-5662659D01*
X14327390Y-5601381D01*
X14327390Y-5541085D01*
X14327390Y-5482251D01*
X14327390Y-5425359D01*
X14327390Y-5370892D01*
X14327390Y-5319329D01*
X14327390Y-5271152D01*
X14327390Y-5226842D01*
X14327390Y-5186879D01*
X14327390Y-5151745D01*
X14327390Y-5121920D01*
X14327390Y-5097886D01*
X14327390Y-5080123D01*
X14327390Y-5069113D01*
X14327390Y-5065336D01*
X14326690Y-12157579D02*
X14326690Y-11228009D01*
D11*
X15644256Y-10628435D02*
X15662500Y-10628435D01*
D10*
X8915784Y-12609488D02*
X8926484Y-12609488D01*
X8938709Y-12609488D01*
X8952411Y-12609488D01*
X8967541Y-12609488D01*
X8984052Y-12609488D01*
X9001895Y-12609488D01*
X9021021Y-12609488D01*
X9041383Y-12609488D01*
X9062933Y-12609488D01*
X9085622Y-12609488D01*
X9109403Y-12609488D01*
X9134226Y-12609488D01*
X9160044Y-12609488D01*
X9186809Y-12609488D01*
X9214472Y-12609488D01*
X9242985Y-12609488D01*
X9272300Y-12609488D01*
X9302369Y-12609488D01*
X9333144Y-12609488D01*
X9364576Y-12609488D01*
X9396617Y-12609488D01*
X9429220Y-12609488D01*
X9462335Y-12609488D01*
X9495915Y-12609488D01*
X9529912Y-12609488D01*
X9564277Y-12609488D01*
X9598962Y-12609488D01*
X9633919Y-12609488D01*
X9669100Y-12609488D01*
X9704456Y-12609488D01*
X9739940Y-12609488D01*
X9775503Y-12609488D01*
X27635425Y-11900052D02*
X27928937Y-10234941D01*
X21102336Y-12579855D02*
X21102336Y-12459204D01*
X15117460Y-12505771D02*
X15963068Y-13970152D01*
X26925285Y-12359369D02*
X26925285Y-11804802D01*
X9775503Y-12609488D02*
X9817189Y-12609495D01*
X9858957Y-12609546D01*
X9900887Y-12609682D01*
X9943059Y-12609949D01*
X9985551Y-12610388D01*
X10028446Y-12611044D01*
X10071821Y-12611958D01*
X10115757Y-12613176D01*
X10160334Y-12614739D01*
X10205632Y-12616690D01*
X10251730Y-12619074D01*
X10298708Y-12621934D01*
X10346647Y-12625312D01*
X10395625Y-12629251D01*
X10445724Y-12633796D01*
X10497022Y-12638989D01*
X10549599Y-12644873D01*
X10603536Y-12651492D01*
X10658912Y-12658889D01*
X10715807Y-12667107D01*
X10774301Y-12676189D01*
X10834474Y-12686179D01*
X10896405Y-12697120D01*
X10960175Y-12709054D01*
X11025863Y-12722026D01*
X11093549Y-12736077D01*
X11163312Y-12751253D01*
X11235234Y-12767595D01*
X11309393Y-12785147D01*
X11385870Y-12803953D01*
X11464744Y-12824055D01*
X11546095Y-12845496D01*
X26925285Y-11804802D02*
X27601207Y-11924041D01*
X22370566Y-4549928D02*
X20579865Y-4549928D01*
X8886150Y-12459204D02*
X8886150Y-12579855D01*
X8886150Y-12579855D02*
X8886188Y-12581368D01*
X8886301Y-12582862D01*
X8886487Y-12584336D01*
X8886744Y-12585787D01*
X8887070Y-12587214D01*
X8887464Y-12588615D01*
X8887924Y-12589988D01*
X8888449Y-12591331D01*
X8889036Y-12592642D01*
X8889684Y-12593918D01*
X8890391Y-12595159D01*
X8891155Y-12596362D01*
X8891974Y-12597525D01*
X8892848Y-12598647D01*
X8893773Y-12599725D01*
X8894749Y-12600757D01*
X8895774Y-12601741D01*
X8896845Y-12602676D01*
X8897961Y-12603560D01*
X8899121Y-12604391D01*
X8900322Y-12605166D01*
X8901564Y-12605884D01*
X8902843Y-12606542D01*
X8904159Y-12607140D01*
X8905509Y-12607674D01*
X8906892Y-12608144D01*
X8908306Y-12608547D01*
X8909750Y-12608880D01*
X8911221Y-12609143D01*
X8912718Y-12609333D01*
X8914240Y-12609449D01*
X8915784Y-12609488D01*
D11*
X14327041Y-6988435D02*
X14327041Y-10628435D01*
D10*
X26826151Y-4965500D02*
X22400200Y-4965500D01*
D11*
X15644256Y-11228434D02*
X15661796Y-11228009D01*
D10*
X20550231Y-4965500D02*
X15762331Y-4965500D01*
X3063200Y-10027861D02*
X2083536Y-10200722D01*
X16769519Y-13538705D02*
X16806641Y-13517273D01*
X16843853Y-13495840D01*
X16881242Y-13474405D01*
X16918898Y-13452965D01*
X16956910Y-13431520D01*
X16995365Y-13410068D01*
X17034355Y-13388608D01*
X17073966Y-13367139D01*
X17114288Y-13345658D01*
X17155411Y-13324166D01*
X17197422Y-13302660D01*
X17240411Y-13281139D01*
X17284466Y-13259602D01*
X17329677Y-13238047D01*
X17376133Y-13216473D01*
X17423921Y-13194879D01*
X17473132Y-13173263D01*
X17523854Y-13151624D01*
X17576176Y-13129960D01*
X17630186Y-13108271D01*
X17685974Y-13086555D01*
X17743629Y-13064810D01*
X17803239Y-13043035D01*
X17864893Y-13021229D01*
X17928681Y-12999391D01*
X17994691Y-12977519D01*
X18063011Y-12955611D01*
X18133732Y-12933667D01*
X18206941Y-12911685D01*
X18282728Y-12889663D01*
X18361182Y-12867601D01*
X18442390Y-12845496D01*
X3163036Y-4965500D02*
X3157877Y-4965630D01*
X3152788Y-4966017D01*
X3147775Y-4966653D01*
X3142844Y-4967533D01*
X3138003Y-4968650D01*
X3133256Y-4969997D01*
X3128610Y-4971570D01*
X3124071Y-4973360D01*
X3119645Y-4975363D01*
X3115338Y-4977571D01*
X3111157Y-4979978D01*
X3107108Y-4982578D01*
X3103196Y-4985365D01*
X3099428Y-4988332D01*
X3095810Y-4991472D01*
X3092348Y-4994781D01*
X3089049Y-4998250D01*
X3085918Y-5001875D01*
X3082961Y-5005648D01*
X3080185Y-5009563D01*
X3077596Y-5013614D01*
X3075200Y-5017795D01*
X3073003Y-5022099D01*
X3071011Y-5026520D01*
X3069230Y-5031051D01*
X3067667Y-5035687D01*
X3066328Y-5040421D01*
X3065218Y-5045246D01*
X3064344Y-5050156D01*
X3063713Y-5055146D01*
X3063329Y-5060208D01*
X3063200Y-5065336D01*
X14227555Y-4965500D02*
X9439655Y-4965500D01*
X2353058Y-11900052D02*
X2353359Y-11901557D01*
X2353729Y-11903027D01*
X2354168Y-11904461D01*
X2354673Y-11905858D01*
X2355242Y-11907216D01*
X2355874Y-11908534D01*
X2356565Y-11909810D01*
X2357314Y-11911044D01*
X2358118Y-11912232D01*
X2358977Y-11913375D01*
X2359887Y-11914471D01*
X2360847Y-11915518D01*
X2361854Y-11916515D01*
X2362907Y-11917460D01*
X2364003Y-11918353D01*
X2365141Y-11919191D01*
X2366318Y-11919973D01*
X2367532Y-11920698D01*
X2368781Y-11921364D01*
X2370063Y-11921970D01*
X2371376Y-11922515D01*
X2372719Y-11922997D01*
X2374088Y-11923414D01*
X2375482Y-11923766D01*
X2376898Y-11924050D01*
X2378336Y-11924266D01*
X2379791Y-11924412D01*
X2381264Y-11924486D01*
X2382751Y-11924488D01*
X2384250Y-11924415D01*
X2385760Y-11924267D01*
X2387278Y-11924041D01*
D12*
X14607756Y-6388435D02*
X15397257Y-6388435D01*
D10*
X26925987Y-10027862D02*
X26925987Y-5065336D01*
D11*
X14327390Y-6388435D02*
X14357757Y-6388435D01*
D10*
X27601207Y-11924041D02*
X27602725Y-11924267D01*
X27604234Y-11924415D01*
X27605734Y-11924488D01*
X27607221Y-11924486D01*
X27608693Y-11924412D01*
X27610149Y-11924266D01*
X27611586Y-11924050D01*
X27613003Y-11923765D01*
X27614397Y-11923414D01*
X27615766Y-11922996D01*
X27617108Y-11922514D01*
X27618422Y-11921970D01*
X27619704Y-11921363D01*
X27620953Y-11920697D01*
X27622167Y-11919972D01*
X27623344Y-11919190D01*
X27624481Y-11918352D01*
X27625578Y-11917460D01*
X27626630Y-11916515D01*
X27627638Y-11915518D01*
X27628597Y-11914471D01*
X27629508Y-11913375D01*
X27630366Y-11912232D01*
X27631171Y-11911043D01*
X27631920Y-11909810D01*
X27632611Y-11908534D01*
X27633242Y-11907216D01*
X27633811Y-11905858D01*
X27634316Y-11904461D01*
X27634754Y-11903027D01*
X27635125Y-11901557D01*
X27635425Y-11900052D01*
X20579865Y-4549928D02*
X20578353Y-4549967D01*
X20576858Y-4550082D01*
X20575384Y-4550273D01*
X20573933Y-4550536D01*
X20572505Y-4550869D01*
X20571104Y-4551272D01*
X20569731Y-4551741D01*
X20568389Y-4552276D01*
X20567078Y-4552874D01*
X20565801Y-4553532D01*
X20564560Y-4554250D01*
X20563357Y-4555025D01*
X20562194Y-4555856D01*
X20561073Y-4556739D01*
X20559995Y-4557675D01*
X20558963Y-4558659D01*
X20557978Y-4559691D01*
X20557043Y-4560769D01*
X20556159Y-4561891D01*
X20555329Y-4563054D01*
X20554553Y-4564257D01*
X20553836Y-4565497D01*
X20553177Y-4566774D01*
X20552579Y-4568085D01*
X20552045Y-4569428D01*
X20551575Y-4570801D01*
X20551173Y-4572202D01*
X20550839Y-4573629D01*
X20550576Y-4575080D01*
X20550386Y-4576554D01*
X20550270Y-4578048D01*
X20550231Y-4579561D01*
X14025418Y-13970152D02*
X14871026Y-12505771D01*
X2083536Y-10200722D02*
X2082031Y-10201022D01*
X2080561Y-10201393D01*
X2079127Y-10201831D01*
X2077730Y-10202336D01*
X2076372Y-10202906D01*
X2075054Y-10203537D01*
X2073778Y-10204228D01*
X2072545Y-10204977D01*
X2071356Y-10205781D01*
X2070213Y-10206640D01*
X2069117Y-10207550D01*
X2068070Y-10208510D01*
X2067073Y-10209517D01*
X2066128Y-10210570D01*
X2065236Y-10211666D01*
X2064398Y-10212804D01*
X2063616Y-10213981D01*
X2062891Y-10215195D01*
X2062224Y-10216444D01*
X2061618Y-10217727D01*
X2061074Y-10219040D01*
X2060592Y-10220382D01*
X2060174Y-10221751D01*
X2059823Y-10223145D01*
X2059538Y-10224562D01*
X2059322Y-10225999D01*
X2059176Y-10227455D01*
X2059102Y-10228927D01*
X2059100Y-10230414D01*
X2059173Y-10231913D01*
X2059322Y-10233423D01*
X2059547Y-10234941D01*
X2059547Y-10234941D02*
X2353058Y-11900052D01*
X7589688Y-4965500D02*
X3163036Y-4965500D01*
D12*
X14604756Y-10628435D02*
X15394257Y-10628435D01*
D10*
X14327390Y-5065336D02*
X14327260Y-5060177D01*
X14326874Y-5055088D01*
X14326237Y-5050075D01*
X14325358Y-5045144D01*
X14324241Y-5040303D01*
X14322893Y-5035556D01*
X14321320Y-5030910D01*
X14319530Y-5026371D01*
X14317527Y-5021945D01*
X14315319Y-5017638D01*
X14312912Y-5013457D01*
X14310312Y-5009408D01*
X14307526Y-5005496D01*
X14304559Y-5001728D01*
X14301418Y-4998110D01*
X14298110Y-4994648D01*
X14294640Y-4991349D01*
X14291016Y-4988218D01*
X14287243Y-4985261D01*
X14283328Y-4982485D01*
X14279276Y-4979896D01*
X14275096Y-4977500D01*
X14270792Y-4975303D01*
X14266371Y-4973311D01*
X14261839Y-4971530D01*
X14257204Y-4969967D01*
X14252470Y-4968628D01*
X14247645Y-4967518D01*
X14242734Y-4966644D01*
X14237745Y-4966013D01*
X14232683Y-4965629D01*
X14227555Y-4965500D01*
X15662495Y-5065336D02*
X15662495Y-6388435D01*
X13218967Y-13538705D02*
X13247859Y-13555395D01*
X13277015Y-13572237D01*
X13306377Y-13589198D01*
X13335886Y-13606244D01*
X13365485Y-13623340D01*
X13395114Y-13640455D01*
X13424716Y-13657553D01*
X13454232Y-13674601D01*
X13483603Y-13691565D01*
X13512772Y-13708412D01*
X13541681Y-13725108D01*
X13570270Y-13741619D01*
X13598482Y-13757912D01*
X13626257Y-13773952D01*
X13653539Y-13789706D01*
X13680268Y-13805140D01*
X13706387Y-13820221D01*
X13731836Y-13834914D01*
X13756558Y-13849187D01*
X13780494Y-13863005D01*
X13803586Y-13876335D01*
X13825775Y-13889143D01*
X13847004Y-13901395D01*
X13867213Y-13913057D01*
X13886345Y-13924096D01*
X13904341Y-13934478D01*
X13921143Y-13944170D01*
X13936693Y-13953137D01*
X13950932Y-13961346D01*
X13963802Y-13968764D01*
X13975244Y-13975356D01*
X13985201Y-13981088D01*
X15762331Y-4965500D02*
X15757171Y-4965630D01*
X15752082Y-4966017D01*
X15747069Y-4966653D01*
X15742139Y-4967533D01*
X15737297Y-4968650D01*
X15732551Y-4969997D01*
X15727904Y-4971570D01*
X15723365Y-4973360D01*
X15718940Y-4975363D01*
X15714633Y-4977571D01*
X15710452Y-4979978D01*
X15706403Y-4982578D01*
X15702491Y-4985365D01*
X15698723Y-4988332D01*
X15695105Y-4991472D01*
X15691643Y-4994781D01*
X15688344Y-4998250D01*
X15685213Y-5001875D01*
X15682256Y-5005648D01*
X15679480Y-5009563D01*
X15676891Y-5013614D01*
X15674495Y-5017795D01*
X15672298Y-5022099D01*
X15670306Y-5026520D01*
X15668525Y-5031051D01*
X15666962Y-5035687D01*
X15665623Y-5040421D01*
X15664513Y-5045246D01*
X15663640Y-5050156D01*
X15663008Y-5055146D01*
X15662624Y-5060208D01*
X15662495Y-5065336D01*
X3063200Y-5065336D02*
X3063200Y-10027861D01*
X21072701Y-12609488D02*
X21074214Y-12609449D01*
X21075709Y-12609333D01*
X21077183Y-12609143D01*
X21078634Y-12608880D01*
X21080061Y-12608547D01*
X21081462Y-12608144D01*
X21082835Y-12607674D01*
X21084178Y-12607140D01*
X21085489Y-12606542D01*
X21086766Y-12605884D01*
X21088007Y-12605166D01*
X21089210Y-12604391D01*
X21090373Y-12603560D01*
X21091494Y-12602676D01*
X21092572Y-12601741D01*
X21093604Y-12600757D01*
X21094589Y-12599725D01*
X21095524Y-12598647D01*
X21096408Y-12597525D01*
X21097238Y-12596362D01*
X21098013Y-12595159D01*
X21098731Y-12593918D01*
X21099390Y-12592642D01*
X21099987Y-12591331D01*
X21100522Y-12589988D01*
X21100991Y-12588615D01*
X21101394Y-12587214D01*
X21101728Y-12585787D01*
X21101991Y-12584336D01*
X21102181Y-12582862D01*
X21102297Y-12581368D01*
X21102336Y-12579855D01*
X15661796Y-11228009D02*
X15661796Y-12157579D01*
X21102336Y-12459204D02*
X26825449Y-12459204D01*
X3063200Y-12359369D02*
X3063330Y-12364528D01*
X3063716Y-12369617D01*
X3064353Y-12374630D01*
X3065233Y-12379560D01*
X3066349Y-12384402D01*
X3067697Y-12389149D01*
X3069270Y-12393795D01*
X3071060Y-12398334D01*
X3073063Y-12402760D01*
X3075271Y-12407066D01*
X3077678Y-12411248D01*
X3080278Y-12415297D01*
X3083065Y-12419209D01*
X3086031Y-12422977D01*
X3089172Y-12426595D01*
X3092480Y-12430056D01*
X3095950Y-12433356D01*
X3099574Y-12436487D01*
X3103347Y-12439444D01*
X3107263Y-12442220D01*
X3111314Y-12444809D01*
X3115495Y-12447205D01*
X3119799Y-12449402D01*
X3124219Y-12451394D01*
X3128751Y-12453174D01*
X3133387Y-12454737D01*
X3138120Y-12456077D01*
X3142946Y-12457186D01*
X3147856Y-12458060D01*
X3152846Y-12458692D01*
X3157908Y-12459075D01*
X3163036Y-12459204D01*
X11546095Y-12845496D02*
X11627303Y-12867601D01*
X11705757Y-12889663D01*
X11781544Y-12911685D01*
X11854753Y-12933667D01*
X11925474Y-12955611D01*
X11993795Y-12977519D01*
X12059804Y-12999391D01*
X12123592Y-13021229D01*
X12185247Y-13043035D01*
X12244857Y-13064810D01*
X12302511Y-13086555D01*
X12358300Y-13108271D01*
X12412310Y-13129960D01*
X12464632Y-13151624D01*
X12515354Y-13173263D01*
X12564564Y-13194879D01*
X12612353Y-13216473D01*
X12658808Y-13238047D01*
X12704019Y-13259602D01*
X12748075Y-13281139D01*
X12791064Y-13302660D01*
X12833075Y-13324166D01*
X12874198Y-13345659D01*
X12914520Y-13367139D01*
X12954131Y-13388609D01*
X12993121Y-13410069D01*
X13031576Y-13431520D01*
X13069588Y-13452965D01*
X13107244Y-13474405D01*
X13144633Y-13495840D01*
X13181845Y-13517273D01*
X13218967Y-13538705D01*
X13985201Y-13981088D02*
X13986534Y-13981811D01*
X13987889Y-13982458D01*
X13989260Y-13983029D01*
X13990647Y-13983527D01*
X13992047Y-13983951D01*
X13993457Y-13984301D01*
X13994874Y-13984580D01*
X13996297Y-13984787D01*
X13997722Y-13984923D01*
X13999147Y-13984990D01*
X14000569Y-13984986D01*
X14001987Y-13984914D01*
X14003397Y-13984775D01*
X14004798Y-13984568D01*
X14006185Y-13984294D01*
X14007558Y-13983955D01*
X14008913Y-13983550D01*
X14010248Y-13983081D01*
X14011560Y-13982549D01*
X14012848Y-13981953D01*
X14014107Y-13981295D01*
X14015337Y-13980576D01*
X14016533Y-13979795D01*
X14017695Y-13978955D01*
X14018819Y-13978055D01*
X14019902Y-13977097D01*
X14020943Y-13976080D01*
X14021939Y-13975006D01*
X14022887Y-13973876D01*
X14023784Y-13972690D01*
X14024629Y-13971448D01*
X14025418Y-13970152D01*
D11*
X14354756Y-11228435D02*
X14326690Y-11228009D01*
D10*
X15128396Y-12465554D02*
X15127100Y-12466343D01*
X15125858Y-12467188D01*
X15124672Y-12468085D01*
X15123542Y-12469033D01*
X15122468Y-12470029D01*
X15121451Y-12471069D01*
X15120493Y-12472153D01*
X15119593Y-12473277D01*
X15118752Y-12474438D01*
X15117972Y-12475635D01*
X15117253Y-12476864D01*
X15116595Y-12478124D01*
X15115999Y-12479411D01*
X15115467Y-12480724D01*
X15114998Y-12482059D01*
X15114593Y-12483414D01*
X15114254Y-12484786D01*
X15113980Y-12486174D01*
X15113773Y-12487574D01*
X15113633Y-12488984D01*
X15113562Y-12490402D01*
X15113558Y-12491825D01*
X15113625Y-12493250D01*
X15113761Y-12494675D01*
X15113968Y-12496097D01*
X15114247Y-12497515D01*
X15114597Y-12498925D01*
X15115021Y-12500324D01*
X15115519Y-12501711D01*
X15116090Y-12503083D01*
X15116737Y-12504437D01*
X15117460Y-12505771D01*
X27904948Y-10200722D02*
X27905652Y-10200723D01*
D11*
X15662500Y-6988400D02*
X15662500Y-10628435D01*
D10*
X26825449Y-12459204D02*
X26830608Y-12459074D01*
X26835697Y-12458688D01*
X26840710Y-12458051D01*
X26845641Y-12457172D01*
X26850482Y-12456055D01*
X26855229Y-12454707D01*
X26859875Y-12453135D01*
X26864414Y-12451344D01*
X26868840Y-12449342D01*
X26873147Y-12447134D01*
X26877328Y-12444726D01*
X26881377Y-12442126D01*
X26885289Y-12439340D01*
X26889057Y-12436373D01*
X26892675Y-12433232D01*
X26896137Y-12429924D01*
X26899437Y-12426454D01*
X26902568Y-12422830D01*
X26905524Y-12419057D01*
X26908300Y-12415142D01*
X26910889Y-12411091D01*
X26913286Y-12406910D01*
X26915483Y-12402606D01*
X26917475Y-12398185D01*
X26919255Y-12393654D01*
X26920818Y-12389018D01*
X26922158Y-12384284D01*
X26923267Y-12379459D01*
X26924141Y-12374549D01*
X26924773Y-12369559D01*
X26925156Y-12364497D01*
X26925285Y-12359369D01*
X27905652Y-10200723D02*
X26925987Y-10027862D01*
X14871026Y-12505771D02*
X14871749Y-12504437D01*
X14872396Y-12503083D01*
X14872967Y-12501712D01*
X14873465Y-12500325D01*
X14873889Y-12498925D01*
X14874239Y-12497515D01*
X14874518Y-12496098D01*
X14874725Y-12494675D01*
X14874861Y-12493250D01*
X14874928Y-12491825D01*
X14874924Y-12490402D01*
X14874852Y-12488985D01*
X14874713Y-12487575D01*
X14874506Y-12486174D01*
X14874232Y-12484787D01*
X14873893Y-12483414D01*
X14873488Y-12482059D01*
X14873019Y-12480724D01*
X14872487Y-12479412D01*
X14871891Y-12478124D01*
X14871233Y-12476865D01*
X14870514Y-12475635D01*
X14869733Y-12474438D01*
X14868893Y-12473277D01*
X14867993Y-12472153D01*
X14867035Y-12471069D01*
X14866018Y-12470029D01*
X14864944Y-12469033D01*
X14863814Y-12468085D01*
X14862628Y-12467188D01*
X14861386Y-12466343D01*
X14860090Y-12465554D01*
X3063200Y-11804802D02*
X3063200Y-12359369D01*
X15963068Y-13970152D02*
X15963857Y-13971448D01*
X15964702Y-13972690D01*
X15965599Y-13973876D01*
X15966547Y-13975006D01*
X15967542Y-13976080D01*
X15968583Y-13977097D01*
X15969667Y-13978055D01*
X15970791Y-13978955D01*
X15971952Y-13979795D01*
X15973149Y-13980576D01*
X15974378Y-13981295D01*
X15975638Y-13981953D01*
X15976925Y-13982549D01*
X15978237Y-13983081D01*
X15979572Y-13983550D01*
X15980928Y-13983955D01*
X15982300Y-13984294D01*
X15983688Y-13984568D01*
X15985088Y-13984775D01*
X15986498Y-13984914D01*
X15987916Y-13984986D01*
X15989339Y-13984990D01*
X15990764Y-13984923D01*
X15992189Y-13984787D01*
X15993611Y-13984580D01*
X15995029Y-13984301D01*
X15996439Y-13983951D01*
X15997838Y-13983527D01*
X15999225Y-13983029D01*
X16000597Y-13982458D01*
X16001951Y-13981811D01*
X16003285Y-13981088D01*
D11*
X14357756Y-6988435D02*
X14327041Y-6988435D01*
D10*
X22400200Y-4579561D02*
X22400161Y-4578048D01*
X22400045Y-4576554D01*
X22399855Y-4575080D01*
X22399592Y-4573629D01*
X22399258Y-4572201D01*
X22398856Y-4570800D01*
X22398386Y-4569427D01*
X22397852Y-4568085D01*
X22397254Y-4566774D01*
X22396595Y-4565497D01*
X22395878Y-4564256D01*
X22395102Y-4563053D01*
X22394272Y-4561890D01*
X22393388Y-4560769D01*
X22392453Y-4559691D01*
X22391468Y-4558659D01*
X22390436Y-4557674D01*
X22389358Y-4556739D01*
X22388237Y-4555855D01*
X22387074Y-4555025D01*
X22385871Y-4554250D01*
X22384630Y-4553532D01*
X22383353Y-4552873D01*
X22382042Y-4552276D01*
X22380700Y-4551741D01*
X22379327Y-4551272D01*
X22377926Y-4550869D01*
X22376498Y-4550536D01*
X22375047Y-4550273D01*
X22373573Y-4550082D01*
X22372078Y-4549967D01*
X22370566Y-4549928D01*
X20212982Y-12609488D02*
X20248577Y-12609488D01*
X20284091Y-12609488D01*
X20319475Y-12609488D01*
X20354682Y-12609488D01*
X20389663Y-12609488D01*
X20424369Y-12609488D01*
X20458754Y-12609488D01*
X20492768Y-12609488D01*
X20526364Y-12609488D01*
X20559493Y-12609488D01*
X20592107Y-12609488D01*
X20624157Y-12609488D01*
X20655597Y-12609488D01*
X20686377Y-12609488D01*
X20716449Y-12609488D01*
X20745765Y-12609488D01*
X20774277Y-12609488D01*
X20801937Y-12609488D01*
X20828697Y-12609488D01*
X20854507Y-12609488D01*
X20879321Y-12609488D01*
X20903090Y-12609488D01*
X20925766Y-12609488D01*
X20947300Y-12609488D01*
X20967645Y-12609488D01*
X20986752Y-12609488D01*
X21004573Y-12609488D01*
X21021060Y-12609488D01*
X21036164Y-12609488D01*
X21049838Y-12609488D01*
X21062033Y-12609488D01*
X21072701Y-12609488D01*
X9439655Y-4579561D02*
X9439616Y-4578048D01*
X9439500Y-4576554D01*
X9439310Y-4575080D01*
X9439047Y-4573629D01*
X9438713Y-4572201D01*
X9438310Y-4570800D01*
X9437841Y-4569427D01*
X9437306Y-4568085D01*
X9436709Y-4566774D01*
X9436050Y-4565497D01*
X9435332Y-4564256D01*
X9434557Y-4563053D01*
X9433727Y-4561890D01*
X9432843Y-4560769D01*
X9431908Y-4559691D01*
X9430923Y-4558659D01*
X9429891Y-4557674D01*
X9428813Y-4556739D01*
X9427692Y-4555855D01*
X9426529Y-4555025D01*
X9425326Y-4554250D01*
X9424085Y-4553532D01*
X9422808Y-4552873D01*
X9421498Y-4552276D01*
X9420155Y-4551741D01*
X9418782Y-4551272D01*
X9417381Y-4550869D01*
X9415954Y-4550536D01*
X9414502Y-4550273D01*
X9413028Y-4550082D01*
X9411534Y-4549967D01*
X9410021Y-4549928D01*
D12*
X14604756Y-11228434D02*
X15394256Y-11228435D01*
D10*
X26925987Y-5065336D02*
X26925857Y-5060177D01*
X26925471Y-5055088D01*
X26924835Y-5050075D01*
X26923955Y-5045144D01*
X26922838Y-5040303D01*
X26921490Y-5035556D01*
X26919918Y-5030910D01*
X26918127Y-5026371D01*
X26916124Y-5021945D01*
X26913916Y-5017638D01*
X26911509Y-5013457D01*
X26908909Y-5009408D01*
X26906122Y-5005496D01*
X26903156Y-5001728D01*
X26900015Y-4998110D01*
X26896707Y-4994648D01*
X26893237Y-4991349D01*
X26889612Y-4988218D01*
X26885839Y-4985261D01*
X26881924Y-4982485D01*
X26877873Y-4979896D01*
X26873692Y-4977500D01*
X26869388Y-4975303D01*
X26864967Y-4973311D01*
X26860436Y-4971530D01*
X26855800Y-4969967D01*
X26851066Y-4968628D01*
X26846241Y-4967518D01*
X26841331Y-4966644D01*
X26836341Y-4966013D01*
X26831279Y-4965629D01*
X26826151Y-4965500D01*
X22400200Y-4965500D02*
X22400200Y-4579561D01*
D13*
D14*
X14334756Y-10718435D02*
X14384756Y-10768435D01*
X14384756Y-10718435D02*
X14334756Y-10768435D01*
X14334756Y-10792435D02*
X14384756Y-10842435D01*
X14384756Y-10792435D02*
X14334756Y-10842435D01*
X14334756Y-10866435D02*
X14384756Y-10916435D01*
X14384756Y-10866435D02*
X14334756Y-10916435D01*
X14334756Y-10940435D02*
X14384756Y-10990435D01*
X14384756Y-10940435D02*
X14334756Y-10990435D01*
X14334756Y-11014435D02*
X14384756Y-11064435D01*
X14384756Y-11014435D02*
X14334756Y-11064435D01*
X14334756Y-11088435D02*
X14384756Y-11138435D01*
X14384756Y-11088435D02*
X14334756Y-11138435D01*
X14337756Y-6478435D02*
X14387756Y-6528435D01*
X14387756Y-6478435D02*
X14337756Y-6528435D01*
X14337756Y-6552435D02*
X14387756Y-6602435D01*
X14387756Y-6552435D02*
X14337756Y-6602435D01*
X14337756Y-6626435D02*
X14387756Y-6676435D01*
X14387756Y-6626435D02*
X14337756Y-6676435D01*
X14337756Y-6700435D02*
X14387756Y-6750435D01*
X14387756Y-6700435D02*
X14337756Y-6750435D01*
X14337756Y-6774435D02*
X14387756Y-6824435D01*
X14387756Y-6774435D02*
X14337756Y-6824435D01*
X14337756Y-6848435D02*
X14387756Y-6898435D01*
X14387756Y-6848435D02*
X14337756Y-6898435D01*
X15614256Y-10718435D02*
X15664256Y-10768435D01*
X15664256Y-10718435D02*
X15614256Y-10768435D01*
X15614256Y-10792435D02*
X15664256Y-10842435D01*
X15664256Y-10792435D02*
X15614256Y-10842435D01*
X15614256Y-10866435D02*
X15664256Y-10916435D01*
X15664256Y-10866435D02*
X15614256Y-10916435D01*
X15614256Y-10940435D02*
X15664256Y-10990435D01*
X15664256Y-10940435D02*
X15614256Y-10990435D01*
X15614256Y-11014435D02*
X15664256Y-11064435D01*
X15664256Y-11014435D02*
X15614256Y-11064435D01*
X15614256Y-11088435D02*
X15664256Y-11138435D01*
X15664256Y-11088435D02*
X15614256Y-11138435D01*
X15617256Y-6478435D02*
X15667256Y-6528435D01*
X15667256Y-6478435D02*
X15617256Y-6528435D01*
X15617256Y-6552435D02*
X15667256Y-6602435D01*
X15667256Y-6552435D02*
X15617256Y-6602435D01*
X15617256Y-6626435D02*
X15667256Y-6676435D01*
X15667256Y-6626435D02*
X15617256Y-6676435D01*
X15617256Y-6700435D02*
X15667256Y-6750435D01*
X15667256Y-6700435D02*
X15617256Y-6750435D01*
X15617256Y-6774435D02*
X15667256Y-6824435D01*
X15667256Y-6774435D02*
X15617256Y-6824435D01*
X15617256Y-6848435D02*
X15667256Y-6898435D01*
X15667256Y-6848435D02*
X15617256Y-6898435D01*
D15*
X6410000Y-5135000D02*
G75*
G03*
X6410000Y-5135000I-35000J0D01*
G01*
X6710000Y-5140000D02*
G75*
G03*
X6710000Y-5140000I-35000J0D01*
G01*
X23390000Y-5135000D02*
G75*
G03*
X23390000Y-5135000I-35000J0D01*
G01*
X23690000Y-5140000D02*
G75*
G03*
X23690000Y-5140000I-35000J0D01*
G01*
D16*
X13820000Y-5060000D02*
X13820000Y-5180000D01*
X13760000Y-5120000D02*
X13880000Y-5120000D01*
X13820000Y-5760000D02*
X13820000Y-5880000D01*
X13760000Y-5820000D02*
X13880000Y-5820000D01*
X16180000Y-5060000D02*
X16180000Y-5180000D01*
X16120000Y-5120000D02*
X16240000Y-5120000D01*
X16180000Y-5760000D02*
X16180000Y-5880000D01*
X16120000Y-5820000D02*
X16240000Y-5820000D01*
D17*
X2633781Y-11064610D02*
X2633781Y-10944273D01*
X2513444Y-10944273D01*
X2513444Y-11064610D01*
X2633781Y-11064610D01*
X3717069Y-10873597D02*
X3717069Y-10753260D01*
X3596732Y-10753260D01*
X3596732Y-10873597D01*
X3717069Y-10873597D01*
X3953575Y-8155415D02*
X3953575Y-8035078D01*
X3833238Y-8035078D01*
X3833238Y-8155415D01*
X3953575Y-8155415D01*
X4248781Y-9829610D02*
X4248781Y-9709273D01*
X4128444Y-9709273D01*
X4128444Y-9829610D01*
X4248781Y-9829610D01*
X4543986Y-11503805D02*
X4543986Y-11383468D01*
X4423650Y-11383468D01*
X4423650Y-11503805D01*
X4543986Y-11503805D01*
X5036864Y-7964402D02*
X5036864Y-7844065D01*
X4916527Y-7844065D01*
X4916527Y-7964402D01*
X5036864Y-7964402D01*
X5332069Y-9638597D02*
X5332069Y-9518260D01*
X5211733Y-9518260D01*
X5211733Y-9638597D01*
X5332069Y-9638597D01*
X5627275Y-11312792D02*
X5627275Y-11192455D01*
X5506938Y-11192455D01*
X5506938Y-11312792D01*
X5627275Y-11312792D01*
X5964589Y-6543207D02*
X5964589Y-6422871D01*
X5844253Y-6422871D01*
X5844253Y-6543207D01*
X5964589Y-6543207D01*
X6083177Y-8239088D02*
X6083177Y-8118752D01*
X5962840Y-8118752D01*
X5962840Y-8239088D01*
X6083177Y-8239088D01*
X6201765Y-9934969D02*
X6201765Y-9814633D01*
X6081428Y-9814633D01*
X6081428Y-9934969D01*
X6201765Y-9934969D01*
X7061910Y-6466475D02*
X7061910Y-6346139D01*
X6941573Y-6346139D01*
X6941573Y-6466475D01*
X7061910Y-6466475D01*
X7180497Y-8162356D02*
X7180497Y-8042019D01*
X7060161Y-8042019D01*
X7060161Y-8162356D01*
X7180497Y-8162356D01*
X7299085Y-9858237D02*
X7299085Y-9737900D01*
X7178748Y-9737900D01*
X7178748Y-9858237D01*
X7299085Y-9858237D01*
X8023091Y-5476965D02*
X8023091Y-5356629D01*
X7902755Y-5356629D01*
X7902755Y-5476965D01*
X8023091Y-5476965D01*
X8023091Y-7176987D02*
X8023091Y-7056650D01*
X7902755Y-7056650D01*
X7902755Y-7176987D01*
X8023091Y-7176987D01*
X8023091Y-8877009D02*
X8023091Y-8756673D01*
X7902755Y-8756673D01*
X7902755Y-8877009D01*
X8023091Y-8877009D01*
X9123091Y-5476965D02*
X9123091Y-5356629D01*
X9002755Y-5356629D01*
X9002755Y-5476965D01*
X9123091Y-5476965D01*
X9123091Y-7176987D02*
X9123091Y-7056650D01*
X9002755Y-7056650D01*
X9002755Y-7176987D01*
X9123091Y-7176987D01*
X9123091Y-8877009D02*
X9123091Y-8756673D01*
X9002755Y-8756673D01*
X9002755Y-8877009D01*
X9123091Y-8877009D01*
X9320485Y-11791603D02*
X9320485Y-11671266D01*
X9200148Y-11671266D01*
X9200148Y-11791603D01*
X9320485Y-11791603D01*
X9823092Y-6320613D02*
X9823092Y-6200276D01*
X9702756Y-6200276D01*
X9702756Y-6320613D01*
X9823092Y-6320613D01*
X9823092Y-8020635D02*
X9823092Y-7900298D01*
X9702756Y-7900298D01*
X9702756Y-8020635D01*
X9823092Y-8020635D01*
X9823092Y-9720657D02*
X9823092Y-9600320D01*
X9702756Y-9600320D01*
X9702756Y-9720657D01*
X9823092Y-9720657D01*
X10420485Y-11791603D02*
X10420485Y-11671266D01*
X10300148Y-11671266D01*
X10300148Y-11791603D01*
X10420485Y-11791603D01*
X10923092Y-6320613D02*
X10923092Y-6200276D01*
X10802756Y-6200276D01*
X10802756Y-6320613D01*
X10923092Y-6320613D01*
X10923092Y-8020635D02*
X10923092Y-7900298D01*
X10802756Y-7900298D01*
X10802756Y-8020635D01*
X10923092Y-8020635D01*
X10923092Y-9720657D02*
X10923092Y-9600320D01*
X10802756Y-9600320D01*
X10802756Y-9720657D01*
X10923092Y-9720657D01*
X11331666Y-11926753D02*
X11331666Y-11806416D01*
X11211329Y-11806416D01*
X11211329Y-11926753D01*
X11331666Y-11926753D01*
X11623089Y-6592623D02*
X11623089Y-6472287D01*
X11502752Y-6472287D01*
X11502752Y-6592623D01*
X11623089Y-6592623D01*
X11623089Y-8292645D02*
X11623089Y-8172309D01*
X11502752Y-8172309D01*
X11502752Y-8292645D01*
X11623089Y-8292645D01*
X11623089Y-9992667D02*
X11623089Y-9872331D01*
X11502752Y-9872331D01*
X11502752Y-9992667D01*
X11623089Y-9992667D01*
X12394184Y-12211454D02*
X12394184Y-12091117D01*
X12273847Y-12091117D01*
X12273847Y-12211454D01*
X12394184Y-12211454D01*
X12723089Y-6592623D02*
X12723089Y-6472287D01*
X12602752Y-6472287D01*
X12602752Y-6592623D01*
X12723089Y-6592623D01*
X12723089Y-8292645D02*
X12723089Y-8172309D01*
X12602752Y-8172309D01*
X12602752Y-8292645D01*
X12723089Y-8292645D01*
X12723089Y-9992667D02*
X12723089Y-9872331D01*
X12602752Y-9872331D01*
X12602752Y-9992667D01*
X12723089Y-9992667D01*
X13231611Y-12561603D02*
X13231611Y-12441266D01*
X13111274Y-12441266D01*
X13111274Y-12561603D01*
X13231611Y-12561603D01*
X14184239Y-13111603D02*
X14184239Y-12991266D01*
X14063902Y-12991266D01*
X14063902Y-13111603D01*
X14184239Y-13111603D01*
X15926575Y-13111603D02*
X15926575Y-12991266D01*
X15806238Y-12991266D01*
X15806238Y-13111603D01*
X15926575Y-13111603D01*
X16879203Y-12561603D02*
X16879203Y-12441266D01*
X16758866Y-12441266D01*
X16758866Y-12561603D01*
X16879203Y-12561603D01*
X17385493Y-6592623D02*
X17385493Y-6472287D01*
X17265156Y-6472287D01*
X17265156Y-6592623D01*
X17385493Y-6592623D01*
X17385497Y-8301153D02*
X17385497Y-8180816D01*
X17265160Y-8180816D01*
X17265160Y-8301153D01*
X17385497Y-8301153D01*
X17385497Y-10001175D02*
X17385497Y-9880838D01*
X17265160Y-9880838D01*
X17265160Y-10001175D01*
X17385497Y-10001175D01*
X17716666Y-12211454D02*
X17716666Y-12091117D01*
X17596329Y-12091117D01*
X17596329Y-12211454D01*
X17716666Y-12211454D01*
X18485493Y-6592623D02*
X18485493Y-6472287D01*
X18365156Y-6472287D01*
X18365156Y-6592623D01*
X18485493Y-6592623D01*
X18485497Y-8301153D02*
X18485497Y-8180816D01*
X18365160Y-8180816D01*
X18365160Y-8301153D01*
X18485497Y-8301153D01*
X18485497Y-10001175D02*
X18485497Y-9880838D01*
X18365160Y-9880838D01*
X18365160Y-10001175D01*
X18485497Y-10001175D01*
X18779184Y-11926753D02*
X18779184Y-11806416D01*
X18658847Y-11806416D01*
X18658847Y-11926753D01*
X18779184Y-11926753D01*
X19185489Y-6320613D02*
X19185489Y-6200276D01*
X19065152Y-6200276D01*
X19065152Y-6320613D01*
X19185489Y-6320613D01*
X19185489Y-8020635D02*
X19185489Y-7900298D01*
X19065152Y-7900298D01*
X19065152Y-8020635D01*
X19185489Y-8020635D01*
X19185489Y-9720657D02*
X19185489Y-9600320D01*
X19065152Y-9600320D01*
X19065152Y-9720657D01*
X19185489Y-9720657D01*
X19687985Y-11791603D02*
X19687985Y-11671266D01*
X19567648Y-11671266D01*
X19567648Y-11791603D01*
X19687985Y-11791603D01*
X20285489Y-6320613D02*
X20285489Y-6200276D01*
X20165152Y-6200276D01*
X20165152Y-6320613D01*
X20285489Y-6320613D01*
X20285489Y-8020635D02*
X20285489Y-7900298D01*
X20165152Y-7900298D01*
X20165152Y-8020635D01*
X20285489Y-8020635D01*
X20285489Y-9720657D02*
X20285489Y-9600320D01*
X20165152Y-9600320D01*
X20165152Y-9720657D01*
X20285489Y-9720657D01*
X20787985Y-11791603D02*
X20787985Y-11671266D01*
X20667648Y-11671266D01*
X20667648Y-11791603D01*
X20787985Y-11791603D01*
X20985485Y-5476965D02*
X20985485Y-5356629D01*
X20865148Y-5356629D01*
X20865148Y-5476965D01*
X20985485Y-5476965D01*
X20985485Y-7176987D02*
X20985485Y-7056650D01*
X20865148Y-7056650D01*
X20865148Y-7176987D01*
X20985485Y-7176987D01*
X20985485Y-8877009D02*
X20985485Y-8756673D01*
X20865148Y-8756673D01*
X20865148Y-8877009D01*
X20985485Y-8877009D01*
X22085485Y-5476965D02*
X22085485Y-5356629D01*
X21965148Y-5356629D01*
X21965148Y-5476965D01*
X22085485Y-5476965D01*
X22085485Y-7176987D02*
X22085485Y-7056650D01*
X21965148Y-7056650D01*
X21965148Y-7176987D01*
X22085485Y-7176987D01*
X22085485Y-8877009D02*
X22085485Y-8756673D01*
X21965148Y-8756673D01*
X21965148Y-8877009D01*
X22085485Y-8877009D01*
X22803177Y-9858901D02*
X22803177Y-9738565D01*
X22682840Y-9738565D01*
X22682840Y-9858901D01*
X22803177Y-9858901D01*
X22921765Y-8163021D02*
X22921765Y-8042684D01*
X22801428Y-8042684D01*
X22801428Y-8163021D01*
X22921765Y-8163021D01*
X23040352Y-6467140D02*
X23040352Y-6346803D01*
X22920015Y-6346803D01*
X22920015Y-6467140D01*
X23040352Y-6467140D01*
X23900497Y-9935634D02*
X23900497Y-9815297D01*
X23780161Y-9815297D01*
X23780161Y-9935634D01*
X23900497Y-9935634D01*
X24019085Y-8239753D02*
X24019085Y-8119416D01*
X23898748Y-8119416D01*
X23898748Y-8239753D01*
X24019085Y-8239753D01*
X24137672Y-6543872D02*
X24137672Y-6423535D01*
X24017336Y-6423535D01*
X24017336Y-6543872D01*
X24137672Y-6543872D01*
X24483369Y-11314486D02*
X24483369Y-11194150D01*
X24363032Y-11194150D01*
X24363032Y-11314486D01*
X24483369Y-11314486D01*
X24778575Y-9640292D02*
X24778575Y-9519955D01*
X24658238Y-9519955D01*
X24658238Y-9640292D01*
X24778575Y-9640292D01*
X25073780Y-7966097D02*
X25073780Y-7845760D01*
X24953444Y-7845760D01*
X24953444Y-7966097D01*
X25073780Y-7966097D01*
X25566658Y-11505499D02*
X25566658Y-11385163D01*
X25446321Y-11385163D01*
X25446321Y-11505499D01*
X25566658Y-11505499D01*
X25861863Y-9831305D02*
X25861863Y-9710968D01*
X25741527Y-9710968D01*
X25741527Y-9831305D01*
X25861863Y-9831305D01*
X26157069Y-8157110D02*
X26157069Y-8036773D01*
X26036732Y-8036773D01*
X26036732Y-8157110D01*
X26157069Y-8157110D01*
X26388780Y-10873597D02*
X26388780Y-10753260D01*
X26268444Y-10753260D01*
X26268444Y-10873597D01*
X26388780Y-10873597D01*
X27472069Y-11064610D02*
X27472069Y-10944273D01*
X27351732Y-10944273D01*
X27351732Y-11064610D01*
X27472069Y-11064610D01*
D18*
X3011936Y-10472974D02*
X3161936Y-10322974D01*
X3011936Y-10172974D01*
X2861936Y-10322974D01*
X3011936Y-10472974D01*
X3542542Y-10602808D02*
X3692542Y-10452808D01*
X3542542Y-10302808D01*
X3392542Y-10452808D01*
X3542542Y-10602808D01*
X4331730Y-7563779D02*
X4481730Y-7413779D01*
X4331730Y-7263779D01*
X4181730Y-7413779D01*
X4331730Y-7563779D01*
X4626936Y-9237974D02*
X4776936Y-9087974D01*
X4626936Y-8937974D01*
X4476936Y-9087974D01*
X4626936Y-9237974D01*
X4862337Y-7693613D02*
X5012337Y-7543613D01*
X4862337Y-7393613D01*
X4712337Y-7543613D01*
X4862337Y-7693613D01*
X4922142Y-10912169D02*
X5072142Y-10762169D01*
X4922142Y-10612169D01*
X4772142Y-10762169D01*
X4922142Y-10912169D01*
X5157542Y-9367808D02*
X5307542Y-9217808D01*
X5157542Y-9067808D01*
X5007542Y-9217808D01*
X5157542Y-9367808D01*
X5452748Y-11042003D02*
X5602748Y-10892003D01*
X5452748Y-10742003D01*
X5302748Y-10892003D01*
X5452748Y-11042003D01*
X6411576Y-6001122D02*
X6561576Y-5851122D01*
X6411576Y-5701122D01*
X6261576Y-5851122D01*
X6411576Y-6001122D01*
X6530164Y-7697003D02*
X6680164Y-7547003D01*
X6530164Y-7397003D01*
X6380164Y-7547003D01*
X6530164Y-7697003D01*
X6648751Y-9392884D02*
X6798751Y-9242884D01*
X6648751Y-9092884D01*
X6498751Y-9242884D01*
X6648751Y-9392884D01*
X6925705Y-6185708D02*
X7075705Y-6035708D01*
X6925705Y-5885708D01*
X6775705Y-6035708D01*
X6925705Y-6185708D01*
X7044292Y-7881589D02*
X7194292Y-7731589D01*
X7044292Y-7581589D01*
X6894292Y-7731589D01*
X7044292Y-7881589D01*
X7162880Y-9577470D02*
X7312880Y-9427470D01*
X7162880Y-9277470D01*
X7012880Y-9427470D01*
X7162880Y-9577470D01*
X8512923Y-4971797D02*
X8662923Y-4821797D01*
X8512923Y-4671797D01*
X8362923Y-4821797D01*
X8512923Y-4971797D01*
X8512923Y-6671819D02*
X8662923Y-6521819D01*
X8512923Y-6371819D01*
X8362923Y-6521819D01*
X8512923Y-6671819D01*
X8512923Y-8371841D02*
X8662923Y-8221841D01*
X8512923Y-8071841D01*
X8362923Y-8221841D01*
X8512923Y-8371841D01*
X9012923Y-5191797D02*
X9162923Y-5041797D01*
X9012923Y-4891797D01*
X8862923Y-5041797D01*
X9012923Y-5191797D01*
X9012923Y-6891819D02*
X9162923Y-6741819D01*
X9012923Y-6591819D01*
X8862923Y-6741819D01*
X9012923Y-6891819D01*
X9012923Y-8591841D02*
X9162923Y-8441841D01*
X9012923Y-8291841D01*
X8862923Y-8441841D01*
X9012923Y-8591841D01*
X9810317Y-11286435D02*
X9960317Y-11136435D01*
X9810317Y-10986435D01*
X9660317Y-11136435D01*
X9810317Y-11286435D01*
X10310317Y-11506435D02*
X10460317Y-11356435D01*
X10310317Y-11206435D01*
X10160317Y-11356435D01*
X10310317Y-11506435D01*
X10312924Y-5815445D02*
X10462924Y-5665445D01*
X10312924Y-5515445D01*
X10162924Y-5665445D01*
X10312924Y-5815445D01*
X10312924Y-7515467D02*
X10462924Y-7365467D01*
X10312924Y-7215467D01*
X10162924Y-7365467D01*
X10312924Y-7515467D01*
X10312924Y-9215489D02*
X10462924Y-9065489D01*
X10312924Y-8915489D01*
X10162924Y-9065489D01*
X10312924Y-9215489D01*
X10812924Y-6035445D02*
X10962924Y-5885445D01*
X10812924Y-5735445D01*
X10662924Y-5885445D01*
X10812924Y-6035445D01*
X10812924Y-7735467D02*
X10962924Y-7585467D01*
X10812924Y-7435467D01*
X10662924Y-7585467D01*
X10812924Y-7735467D01*
X10812924Y-9435489D02*
X10962924Y-9285489D01*
X10812924Y-9135489D01*
X10662924Y-9285489D01*
X10812924Y-9435489D01*
X11956754Y-11584209D02*
X12106754Y-11434209D01*
X11956754Y-11284209D01*
X11806754Y-11434209D01*
X11956754Y-11584209D01*
X12112920Y-6087455D02*
X12262920Y-5937455D01*
X12112920Y-5787455D01*
X11962920Y-5937455D01*
X12112920Y-6087455D01*
X12112920Y-7787477D02*
X12262920Y-7637477D01*
X12112920Y-7487477D01*
X11962920Y-7637477D01*
X12112920Y-7787477D01*
X12112920Y-9487499D02*
X12262920Y-9337499D01*
X12112920Y-9187499D01*
X11962920Y-9337499D01*
X12112920Y-9487499D01*
X12382777Y-11926122D02*
X12532777Y-11776122D01*
X12382777Y-11626122D01*
X12232777Y-11776122D01*
X12382777Y-11926122D01*
X12612920Y-6307455D02*
X12762920Y-6157455D01*
X12612920Y-6007455D01*
X12462920Y-6157455D01*
X12612920Y-6307455D01*
X12612920Y-8007477D02*
X12762920Y-7857477D01*
X12612920Y-7707477D01*
X12462920Y-7857477D01*
X12612920Y-8007477D01*
X12612920Y-9707499D02*
X12762920Y-9557499D01*
X12612920Y-9407499D01*
X12462920Y-9557499D01*
X12612920Y-9707499D01*
X13945256Y-12411150D02*
X14095256Y-12261150D01*
X13945256Y-12111150D01*
X13795256Y-12261150D01*
X13945256Y-12411150D01*
X14268269Y-12851675D02*
X14418269Y-12701675D01*
X14268269Y-12551675D01*
X14118269Y-12701675D01*
X14268269Y-12851675D01*
X16045220Y-12411150D02*
X16195220Y-12261150D01*
X16045220Y-12111150D01*
X15895220Y-12261150D01*
X16045220Y-12411150D01*
X16588233Y-12351675D02*
X16738233Y-12201675D01*
X16588233Y-12051675D01*
X16438233Y-12201675D01*
X16588233Y-12351675D01*
X17875325Y-6087455D02*
X18025325Y-5937455D01*
X17875325Y-5787455D01*
X17725325Y-5937455D01*
X17875325Y-6087455D01*
X17875329Y-7795985D02*
X18025329Y-7645985D01*
X17875329Y-7495985D01*
X17725329Y-7645985D01*
X17875329Y-7795985D01*
X17875329Y-9496007D02*
X18025329Y-9346007D01*
X17875329Y-9196007D01*
X17725329Y-9346007D01*
X17875329Y-9496007D01*
X18033759Y-11584209D02*
X18183759Y-11434209D01*
X18033759Y-11284209D01*
X17883759Y-11434209D01*
X18033759Y-11584209D01*
X18375325Y-6307455D02*
X18525325Y-6157455D01*
X18375325Y-6007455D01*
X18225325Y-6157455D01*
X18375325Y-6307455D01*
X18375329Y-8015985D02*
X18525329Y-7865985D01*
X18375329Y-7715985D01*
X18225329Y-7865985D01*
X18375329Y-8015985D01*
X18375329Y-9716007D02*
X18525329Y-9566007D01*
X18375329Y-9416007D01*
X18225329Y-9566007D01*
X18375329Y-9716007D01*
X18573662Y-11667303D02*
X18723662Y-11517303D01*
X18573662Y-11367303D01*
X18423662Y-11517303D01*
X18573662Y-11667303D01*
X19675321Y-5815445D02*
X19825321Y-5665445D01*
X19675321Y-5515445D01*
X19525321Y-5665445D01*
X19675321Y-5815445D01*
X19675321Y-7515467D02*
X19825321Y-7365467D01*
X19675321Y-7215467D01*
X19525321Y-7365467D01*
X19675321Y-7515467D01*
X19675321Y-9215489D02*
X19825321Y-9065489D01*
X19675321Y-8915489D01*
X19525321Y-9065489D01*
X19675321Y-9215489D01*
X20175321Y-6035445D02*
X20325321Y-5885445D01*
X20175321Y-5735445D01*
X20025321Y-5885445D01*
X20175321Y-6035445D01*
X20175321Y-7735467D02*
X20325321Y-7585467D01*
X20175321Y-7435467D01*
X20025321Y-7585467D01*
X20175321Y-7735467D01*
X20175321Y-9435489D02*
X20325321Y-9285489D01*
X20175321Y-9135489D01*
X20025321Y-9285489D01*
X20175321Y-9435489D01*
X20177817Y-11286435D02*
X20327817Y-11136435D01*
X20177817Y-10986435D01*
X20027817Y-11136435D01*
X20177817Y-11286435D01*
X20677817Y-11506435D02*
X20827817Y-11356435D01*
X20677817Y-11206435D01*
X20527817Y-11356435D01*
X20677817Y-11506435D01*
X21475317Y-4971797D02*
X21625317Y-4821797D01*
X21475317Y-4671797D01*
X21325317Y-4821797D01*
X21475317Y-4971797D01*
X21475317Y-6671819D02*
X21625317Y-6521819D01*
X21475317Y-6371819D01*
X21325317Y-6521819D01*
X21475317Y-6671819D01*
X21475317Y-8371841D02*
X21625317Y-8221841D01*
X21475317Y-8071841D01*
X21325317Y-8221841D01*
X21475317Y-8371841D01*
X21975317Y-5191797D02*
X22125317Y-5041797D01*
X21975317Y-4891797D01*
X21825317Y-5041797D01*
X21975317Y-5191797D01*
X21975317Y-6891819D02*
X22125317Y-6741819D01*
X21975317Y-6591819D01*
X21825317Y-6741819D01*
X21975317Y-6891819D01*
X21975317Y-8591841D02*
X22125317Y-8441841D01*
X21975317Y-8291841D01*
X21825317Y-8441841D01*
X21975317Y-8591841D01*
X23333174Y-9393549D02*
X23483174Y-9243549D01*
X23333174Y-9093549D01*
X23183174Y-9243549D01*
X23333174Y-9393549D01*
X23451762Y-7697668D02*
X23601762Y-7547668D01*
X23451762Y-7397668D01*
X23301762Y-7547668D01*
X23451762Y-7697668D01*
X23570349Y-6001787D02*
X23720349Y-5851787D01*
X23570349Y-5701787D01*
X23420349Y-5851787D01*
X23570349Y-6001787D01*
X23816610Y-9647891D02*
X23966610Y-9497891D01*
X23816610Y-9347891D01*
X23666610Y-9497891D01*
X23816610Y-9647891D01*
X23935197Y-7952010D02*
X24085197Y-7802010D01*
X23935197Y-7652010D01*
X23785197Y-7802010D01*
X23935197Y-7952010D01*
X24053785Y-6256129D02*
X24203785Y-6106129D01*
X24053785Y-5956129D01*
X23903785Y-6106129D01*
X24053785Y-6256129D01*
X25068166Y-10913864D02*
X25218166Y-10763864D01*
X25068166Y-10613864D01*
X24918166Y-10763864D01*
X25068166Y-10913864D01*
X25363371Y-9239669D02*
X25513371Y-9089669D01*
X25363371Y-8939669D01*
X25213371Y-9089669D01*
X25363371Y-9239669D01*
X25522367Y-11217346D02*
X25672367Y-11067346D01*
X25522367Y-10917346D01*
X25372367Y-11067346D01*
X25522367Y-11217346D01*
X25658577Y-7565474D02*
X25808577Y-7415474D01*
X25658577Y-7265474D01*
X25508577Y-7415474D01*
X25658577Y-7565474D01*
X25817572Y-9543151D02*
X25967572Y-9393151D01*
X25817572Y-9243151D01*
X25667572Y-9393151D01*
X25817572Y-9543151D01*
X26112778Y-7868956D02*
X26262778Y-7718956D01*
X26112778Y-7568956D01*
X25962778Y-7718956D01*
X26112778Y-7868956D01*
X26973577Y-10472974D02*
X27123577Y-10322974D01*
X26973577Y-10172974D01*
X26823577Y-10322974D01*
X26973577Y-10472974D01*
X27427778Y-10776456D02*
X27577778Y-10626456D01*
X27427778Y-10476456D01*
X27277778Y-10626456D01*
X27427778Y-10776456D01*
D19*
X2943806Y-10737485D02*
X3286706Y-11080385D01*
X3286706Y-10737485D02*
X2943806Y-11080385D01*
X3286706Y-10908935D02*
G75*
G03*
X3286706Y-10908935I-171450J0D01*
G01*
X4263601Y-7828290D02*
X4606501Y-8171190D01*
X4606501Y-7828290D02*
X4263601Y-8171190D01*
X4606501Y-7999740D02*
G75*
G03*
X4606501Y-7999740I-171450J0D01*
G01*
X4558807Y-9502485D02*
X4901707Y-9845385D01*
X4901707Y-9502485D02*
X4558807Y-9845385D01*
X4901707Y-9673935D02*
G75*
G03*
X4901707Y-9673935I-171450J0D01*
G01*
X4854012Y-11176680D02*
X5196912Y-11519580D01*
X5196912Y-11176680D02*
X4854012Y-11519580D01*
X5196912Y-11348130D02*
G75*
G03*
X5196912Y-11348130I-171450J0D01*
G01*
X6281631Y-6273223D02*
X6624531Y-6616123D01*
X6624531Y-6273223D02*
X6281631Y-6616123D01*
X6624531Y-6444673D02*
G75*
G03*
X6624531Y-6444673I-171450J0D01*
G01*
X6400219Y-7969104D02*
X6743119Y-8312004D01*
X6743119Y-7969104D02*
X6400219Y-8312004D01*
X6743119Y-8140554D02*
G75*
G03*
X6743119Y-8140554I-171450J0D01*
G01*
X6518806Y-9664985D02*
X6861706Y-10007885D01*
X6861706Y-9664985D02*
X6518806Y-10007885D01*
X6861706Y-9836435D02*
G75*
G03*
X6861706Y-9836435I-171450J0D01*
G01*
X8341473Y-5245347D02*
X8684373Y-5588247D01*
X8684373Y-5245347D02*
X8341473Y-5588247D01*
X8684373Y-5416797D02*
G75*
G03*
X8684373Y-5416797I-171450J0D01*
G01*
X8341473Y-6945369D02*
X8684373Y-7288269D01*
X8684373Y-6945369D02*
X8341473Y-7288269D01*
X8684373Y-7116819D02*
G75*
G03*
X8684373Y-7116819I-171450J0D01*
G01*
X8341473Y-8645391D02*
X8684373Y-8988291D01*
X8684373Y-8645391D02*
X8341473Y-8988291D01*
X8684373Y-8816841D02*
G75*
G03*
X8684373Y-8816841I-171450J0D01*
G01*
X9638867Y-11559985D02*
X9981767Y-11902885D01*
X9981767Y-11559985D02*
X9638867Y-11902885D01*
X9981767Y-11731435D02*
G75*
G03*
X9981767Y-11731435I-171450J0D01*
G01*
X10141474Y-6088995D02*
X10484374Y-6431895D01*
X10484374Y-6088995D02*
X10141474Y-6431895D01*
X10484374Y-6260445D02*
G75*
G03*
X10484374Y-6260445I-171450J0D01*
G01*
X10141474Y-7789017D02*
X10484374Y-8131917D01*
X10484374Y-7789017D02*
X10141474Y-8131917D01*
X10484374Y-7960467D02*
G75*
G03*
X10484374Y-7960467I-171450J0D01*
G01*
X10141474Y-9489039D02*
X10484374Y-9831939D01*
X10484374Y-9489039D02*
X10141474Y-9831939D01*
X10484374Y-9660489D02*
G75*
G03*
X10484374Y-9660489I-171450J0D01*
G01*
X11631306Y-11837485D02*
X11974206Y-12180385D01*
X11974206Y-11837485D02*
X11631306Y-12180385D01*
X11974206Y-12008935D02*
G75*
G03*
X11974206Y-12008935I-171450J0D01*
G01*
X11941470Y-6361005D02*
X12284370Y-6703905D01*
X12284370Y-6361005D02*
X11941470Y-6703905D01*
X12284370Y-6532455D02*
G75*
G03*
X12284370Y-6532455I-171450J0D01*
G01*
X11941470Y-8061027D02*
X12284370Y-8403927D01*
X12284370Y-8061027D02*
X11941470Y-8403927D01*
X12284370Y-8232477D02*
G75*
G03*
X12284370Y-8232477I-171450J0D01*
G01*
X11941470Y-9761049D02*
X12284370Y-10103949D01*
X12284370Y-9761049D02*
X11941470Y-10103949D01*
X12284370Y-9932499D02*
G75*
G03*
X12284370Y-9932499I-171450J0D01*
G01*
X13476306Y-12604985D02*
X13819206Y-12947885D01*
X13819206Y-12604985D02*
X13476306Y-12947885D01*
X13819206Y-12776435D02*
G75*
G03*
X13819206Y-12776435I-171450J0D01*
G01*
X16171270Y-12604985D02*
X16514170Y-12947885D01*
X16514170Y-12604985D02*
X16171270Y-12947885D01*
X16514170Y-12776435D02*
G75*
G03*
X16514170Y-12776435I-171450J0D01*
G01*
X17703875Y-6361005D02*
X18046775Y-6703905D01*
X18046775Y-6361005D02*
X17703875Y-6703905D01*
X18046775Y-6532455D02*
G75*
G03*
X18046775Y-6532455I-171450J0D01*
G01*
X17703879Y-8069535D02*
X18046779Y-8412435D01*
X18046779Y-8069535D02*
X17703879Y-8412435D01*
X18046779Y-8240985D02*
G75*
G03*
X18046779Y-8240985I-171450J0D01*
G01*
X17703879Y-9769557D02*
X18046779Y-10112457D01*
X18046779Y-9769557D02*
X17703879Y-10112457D01*
X18046779Y-9941007D02*
G75*
G03*
X18046779Y-9941007I-171450J0D01*
G01*
X18016307Y-11837485D02*
X18359207Y-12180385D01*
X18359207Y-11837485D02*
X18016307Y-12180385D01*
X18359207Y-12008935D02*
G75*
G03*
X18359207Y-12008935I-171450J0D01*
G01*
X19503871Y-6088995D02*
X19846771Y-6431895D01*
X19846771Y-6088995D02*
X19503871Y-6431895D01*
X19846771Y-6260445D02*
G75*
G03*
X19846771Y-6260445I-171450J0D01*
G01*
X19503871Y-7789017D02*
X19846771Y-8131917D01*
X19846771Y-7789017D02*
X19503871Y-8131917D01*
X19846771Y-7960467D02*
G75*
G03*
X19846771Y-7960467I-171450J0D01*
G01*
X19503871Y-9489039D02*
X19846771Y-9831939D01*
X19846771Y-9489039D02*
X19503871Y-9831939D01*
X19846771Y-9660489D02*
G75*
G03*
X19846771Y-9660489I-171450J0D01*
G01*
X20006367Y-11559985D02*
X20349267Y-11902885D01*
X20349267Y-11559985D02*
X20006367Y-11902885D01*
X20349267Y-11731435D02*
G75*
G03*
X20349267Y-11731435I-171450J0D01*
G01*
X21303867Y-5245347D02*
X21646767Y-5588247D01*
X21646767Y-5245347D02*
X21303867Y-5588247D01*
X21646767Y-5416797D02*
G75*
G03*
X21646767Y-5416797I-171450J0D01*
G01*
X21303867Y-6945369D02*
X21646767Y-7288269D01*
X21646767Y-6945369D02*
X21303867Y-7288269D01*
X21646767Y-7116819D02*
G75*
G03*
X21646767Y-7116819I-171450J0D01*
G01*
X21303867Y-8645391D02*
X21646767Y-8988291D01*
X21646767Y-8645391D02*
X21303867Y-8988291D01*
X21646767Y-8816841D02*
G75*
G03*
X21646767Y-8816841I-171450J0D01*
G01*
X23120219Y-9665649D02*
X23463119Y-10008549D01*
X23463119Y-9665649D02*
X23120219Y-10008549D01*
X23463119Y-9837099D02*
G75*
G03*
X23463119Y-9837099I-171450J0D01*
G01*
X23238806Y-7969768D02*
X23581706Y-8312668D01*
X23581706Y-7969768D02*
X23238806Y-8312668D01*
X23581706Y-8141218D02*
G75*
G03*
X23581706Y-8141218I-171450J0D01*
G01*
X23357394Y-6273887D02*
X23700294Y-6616787D01*
X23700294Y-6273887D02*
X23357394Y-6616787D01*
X23700294Y-6445337D02*
G75*
G03*
X23700294Y-6445337I-171450J0D01*
G01*
X24793395Y-11178375D02*
X25136295Y-11521274D01*
X25136295Y-11178375D02*
X24793395Y-11521274D01*
X25136295Y-11349824D02*
G75*
G03*
X25136295Y-11349824I-171450J0D01*
G01*
X25088601Y-9504180D02*
X25431501Y-9847080D01*
X25431501Y-9504180D02*
X25088601Y-9847080D01*
X25431501Y-9675630D02*
G75*
G03*
X25431501Y-9675630I-171450J0D01*
G01*
X25383806Y-7829985D02*
X25726706Y-8172885D01*
X25726706Y-7829985D02*
X25383806Y-8172885D01*
X25726706Y-8001435D02*
G75*
G03*
X25726706Y-8001435I-171450J0D01*
G01*
X26698806Y-10737485D02*
X27041706Y-11080385D01*
X27041706Y-10737485D02*
X26698806Y-11080385D01*
X27041706Y-10908935D02*
G75*
G03*
X27041706Y-10908935I-171450J0D01*
G01*
D13*
X2313844Y-14300179D02*
X2313844Y-14100179D01*
X2361463Y-14100179D01*
X2390035Y-14109703D01*
X2409082Y-14128750D01*
X2418606Y-14147798D01*
X2428130Y-14185893D01*
X2428130Y-14214464D01*
X2418606Y-14252560D01*
X2409082Y-14271607D01*
X2390035Y-14290655D01*
X2361463Y-14300179D01*
X2313844Y-14300179D01*
X2513844Y-14300179D02*
X2513844Y-14166845D01*
X2513844Y-14204941D02*
X2523368Y-14185893D01*
X2532892Y-14176369D01*
X2551939Y-14166845D01*
X2570987Y-14166845D01*
X2637654Y-14300179D02*
X2637654Y-14166845D01*
X2637654Y-14100179D02*
X2628130Y-14109703D01*
X2637654Y-14119226D01*
X2647177Y-14109703D01*
X2637654Y-14100179D01*
X2637654Y-14119226D01*
X2761463Y-14300179D02*
X2742415Y-14290655D01*
X2732892Y-14271607D01*
X2732892Y-14100179D01*
X2866225Y-14300179D02*
X2847177Y-14290655D01*
X2837653Y-14271607D01*
X2837653Y-14100179D01*
X3094796Y-14300179D02*
X3094796Y-14100179D01*
X3161463Y-14243036D01*
X3228130Y-14100179D01*
X3228130Y-14300179D01*
X3409082Y-14300179D02*
X3409082Y-14195417D01*
X3399558Y-14176369D01*
X3380511Y-14166845D01*
X3342415Y-14166845D01*
X3323368Y-14176369D01*
X3409082Y-14290655D02*
X3390034Y-14300179D01*
X3342415Y-14300179D01*
X3323368Y-14290655D01*
X3313844Y-14271607D01*
X3313844Y-14252560D01*
X3323368Y-14233512D01*
X3342415Y-14223988D01*
X3390034Y-14223988D01*
X3409082Y-14214464D01*
X3504320Y-14166845D02*
X3504320Y-14366845D01*
X3504320Y-14176369D02*
X3523368Y-14166845D01*
X3561463Y-14166845D01*
X3580511Y-14176369D01*
X3590034Y-14185893D01*
X3599558Y-14204941D01*
X3599558Y-14262083D01*
X3590034Y-14281131D01*
X3580511Y-14290655D01*
X3561463Y-14300179D01*
X3523368Y-14300179D01*
X3504320Y-14290655D01*
X3685273Y-14281131D02*
X3694796Y-14290655D01*
X3685273Y-14300179D01*
X3675749Y-14290655D01*
X3685273Y-14281131D01*
X3685273Y-14300179D01*
X3685273Y-14176369D02*
X3694796Y-14185893D01*
X3685273Y-14195417D01*
X3675749Y-14185893D01*
X3685273Y-14176369D01*
X3685273Y-14195417D01*
D14*
X2006225Y-14604703D02*
X2056225Y-14654703D01*
X2056225Y-14604703D02*
X2006225Y-14654703D01*
D13*
X2351939Y-14520179D02*
X2370987Y-14520179D01*
X2390035Y-14529703D01*
X2399558Y-14539226D01*
X2409082Y-14558274D01*
X2418606Y-14596369D01*
X2418606Y-14643988D01*
X2409082Y-14682083D01*
X2399558Y-14701131D01*
X2390035Y-14710655D01*
X2370987Y-14720179D01*
X2351939Y-14720179D01*
X2332892Y-14710655D01*
X2323368Y-14701131D01*
X2313844Y-14682083D01*
X2304320Y-14643988D01*
X2304320Y-14596369D01*
X2313844Y-14558274D01*
X2323368Y-14539226D01*
X2332892Y-14529703D01*
X2351939Y-14520179D01*
X2504320Y-14701131D02*
X2513844Y-14710655D01*
X2504320Y-14720179D01*
X2494796Y-14710655D01*
X2504320Y-14701131D01*
X2504320Y-14720179D01*
X2694796Y-14520179D02*
X2599558Y-14520179D01*
X2590035Y-14615417D01*
X2599558Y-14605893D01*
X2618606Y-14596369D01*
X2666225Y-14596369D01*
X2685273Y-14605893D01*
X2694796Y-14615417D01*
X2704320Y-14634464D01*
X2704320Y-14682083D01*
X2694796Y-14701131D01*
X2685273Y-14710655D01*
X2666225Y-14720179D01*
X2618606Y-14720179D01*
X2599558Y-14710655D01*
X2590035Y-14701131D01*
X2828130Y-14520179D02*
X2847177Y-14520179D01*
X2866225Y-14529703D01*
X2875749Y-14539226D01*
X2885273Y-14558274D01*
X2894796Y-14596369D01*
X2894796Y-14643988D01*
X2885273Y-14682083D01*
X2875749Y-14701131D01*
X2866225Y-14710655D01*
X2847177Y-14720179D01*
X2828130Y-14720179D01*
X2809082Y-14710655D01*
X2799558Y-14701131D01*
X2790035Y-14682083D01*
X2780511Y-14643988D01*
X2780511Y-14596369D01*
X2790035Y-14558274D01*
X2799558Y-14539226D01*
X2809082Y-14529703D01*
X2828130Y-14520179D01*
X3018606Y-14520179D02*
X3037653Y-14520179D01*
X3056701Y-14529703D01*
X3066225Y-14539226D01*
X3075749Y-14558274D01*
X3085273Y-14596369D01*
X3085273Y-14643988D01*
X3075749Y-14682083D01*
X3066225Y-14701131D01*
X3056701Y-14710655D01*
X3037653Y-14720179D01*
X3018606Y-14720179D01*
X2999558Y-14710655D01*
X2990034Y-14701131D01*
X2980511Y-14682083D01*
X2970987Y-14643988D01*
X2970987Y-14596369D01*
X2980511Y-14558274D01*
X2990034Y-14539226D01*
X2999558Y-14529703D01*
X3018606Y-14520179D01*
X3170987Y-14720179D02*
X3170987Y-14586845D01*
X3170987Y-14605893D02*
X3180511Y-14596369D01*
X3199558Y-14586845D01*
X3228130Y-14586845D01*
X3247177Y-14596369D01*
X3256701Y-14615417D01*
X3256701Y-14720179D01*
X3256701Y-14615417D02*
X3266225Y-14596369D01*
X3285273Y-14586845D01*
X3313844Y-14586845D01*
X3332892Y-14596369D01*
X3342415Y-14615417D01*
X3342415Y-14720179D01*
X3437653Y-14720179D02*
X3437653Y-14586845D01*
X3437653Y-14605893D02*
X3447177Y-14596369D01*
X3466225Y-14586845D01*
X3494796Y-14586845D01*
X3513844Y-14596369D01*
X3523368Y-14615417D01*
X3523368Y-14720179D01*
X3523368Y-14615417D02*
X3532892Y-14596369D01*
X3551939Y-14586845D01*
X3580511Y-14586845D01*
X3599558Y-14596369D01*
X3609082Y-14615417D01*
X3609082Y-14720179D01*
X3999558Y-14510655D02*
X3828130Y-14767798D01*
X4256701Y-14520179D02*
X4275749Y-14520179D01*
X4294796Y-14529703D01*
X4304320Y-14539226D01*
X4313844Y-14558274D01*
X4323368Y-14596369D01*
X4323368Y-14643988D01*
X4313844Y-14682083D01*
X4304320Y-14701131D01*
X4294796Y-14710655D01*
X4275749Y-14720179D01*
X4256701Y-14720179D01*
X4237654Y-14710655D01*
X4228130Y-14701131D01*
X4218606Y-14682083D01*
X4209082Y-14643988D01*
X4209082Y-14596369D01*
X4218606Y-14558274D01*
X4228130Y-14539226D01*
X4237654Y-14529703D01*
X4256701Y-14520179D01*
X4409082Y-14701131D02*
X4418606Y-14710655D01*
X4409082Y-14720179D01*
X4399558Y-14710655D01*
X4409082Y-14701131D01*
X4409082Y-14720179D01*
X4542415Y-14520179D02*
X4561463Y-14520179D01*
X4580511Y-14529703D01*
X4590035Y-14539226D01*
X4599558Y-14558274D01*
X4609082Y-14596369D01*
X4609082Y-14643988D01*
X4599558Y-14682083D01*
X4590035Y-14701131D01*
X4580511Y-14710655D01*
X4561463Y-14720179D01*
X4542415Y-14720179D01*
X4523368Y-14710655D01*
X4513844Y-14701131D01*
X4504320Y-14682083D01*
X4494796Y-14643988D01*
X4494796Y-14596369D01*
X4504320Y-14558274D01*
X4513844Y-14539226D01*
X4523368Y-14529703D01*
X4542415Y-14520179D01*
X4799558Y-14720179D02*
X4685273Y-14720179D01*
X4742415Y-14720179D02*
X4742415Y-14520179D01*
X4723368Y-14548750D01*
X4704320Y-14567798D01*
X4685273Y-14577322D01*
X4894796Y-14720179D02*
X4932892Y-14720179D01*
X4951939Y-14710655D01*
X4961463Y-14701131D01*
X4980511Y-14672560D01*
X4990035Y-14634464D01*
X4990035Y-14558274D01*
X4980511Y-14539226D01*
X4970987Y-14529703D01*
X4951939Y-14520179D01*
X4913844Y-14520179D01*
X4894796Y-14529703D01*
X4885273Y-14539226D01*
X4875749Y-14558274D01*
X4875749Y-14605893D01*
X4885273Y-14624941D01*
X4894796Y-14634464D01*
X4913844Y-14643988D01*
X4951939Y-14643988D01*
X4970987Y-14634464D01*
X4980511Y-14624941D01*
X4990035Y-14605893D01*
X5056701Y-14520179D02*
X5190035Y-14520179D01*
X5104320Y-14720179D01*
X5256701Y-14520179D02*
X5256701Y-14558274D01*
X5332892Y-14520179D02*
X5332892Y-14558274D01*
X5628130Y-14796369D02*
X5618606Y-14786845D01*
X5599558Y-14758274D01*
X5590035Y-14739226D01*
X5580511Y-14710655D01*
X5570987Y-14663036D01*
X5570987Y-14624941D01*
X5580511Y-14577322D01*
X5590035Y-14548750D01*
X5599558Y-14529703D01*
X5618606Y-14501131D01*
X5628130Y-14491607D01*
X5694796Y-14539226D02*
X5704320Y-14529703D01*
X5723368Y-14520179D01*
X5770987Y-14520179D01*
X5790034Y-14529703D01*
X5799558Y-14539226D01*
X5809082Y-14558274D01*
X5809082Y-14577322D01*
X5799558Y-14605893D01*
X5685273Y-14720179D01*
X5809082Y-14720179D01*
X5980511Y-14586845D02*
X5980511Y-14720179D01*
X5932892Y-14510655D02*
X5885273Y-14653512D01*
X6009082Y-14653512D01*
X6237653Y-14720179D02*
X6237653Y-14520179D01*
X6323368Y-14720179D02*
X6323368Y-14615417D01*
X6313844Y-14596369D01*
X6294796Y-14586845D01*
X6266225Y-14586845D01*
X6247177Y-14596369D01*
X6237653Y-14605893D01*
X6447177Y-14720179D02*
X6428130Y-14710655D01*
X6418606Y-14701131D01*
X6409082Y-14682083D01*
X6409082Y-14624941D01*
X6418606Y-14605893D01*
X6428130Y-14596369D01*
X6447177Y-14586845D01*
X6475749Y-14586845D01*
X6494796Y-14596369D01*
X6504320Y-14605893D01*
X6513844Y-14624941D01*
X6513844Y-14682083D01*
X6504320Y-14701131D01*
X6494796Y-14710655D01*
X6475749Y-14720179D01*
X6447177Y-14720179D01*
X6628130Y-14720179D02*
X6609082Y-14710655D01*
X6599558Y-14691607D01*
X6599558Y-14520179D01*
X6780511Y-14710655D02*
X6761463Y-14720179D01*
X6723368Y-14720179D01*
X6704320Y-14710655D01*
X6694796Y-14691607D01*
X6694796Y-14615417D01*
X6704320Y-14596369D01*
X6723368Y-14586845D01*
X6761463Y-14586845D01*
X6780511Y-14596369D01*
X6790034Y-14615417D01*
X6790034Y-14634464D01*
X6694796Y-14653512D01*
X6866225Y-14710655D02*
X6885273Y-14720179D01*
X6923368Y-14720179D01*
X6942415Y-14710655D01*
X6951939Y-14691607D01*
X6951939Y-14682083D01*
X6942415Y-14663036D01*
X6923368Y-14653512D01*
X6894796Y-14653512D01*
X6875749Y-14643988D01*
X6866225Y-14624941D01*
X6866225Y-14615417D01*
X6875749Y-14596369D01*
X6894796Y-14586845D01*
X6923368Y-14586845D01*
X6942415Y-14596369D01*
X7018606Y-14796369D02*
X7028130Y-14786845D01*
X7047177Y-14758274D01*
X7056701Y-14739226D01*
X7066225Y-14710655D01*
X7075749Y-14663036D01*
X7075749Y-14624941D01*
X7066225Y-14577322D01*
X7056701Y-14548750D01*
X7047177Y-14529703D01*
X7028130Y-14501131D01*
X7018606Y-14491607D01*
X7380511Y-14796369D02*
X7370987Y-14786845D01*
X7351939Y-14758274D01*
X7342415Y-14739226D01*
X7332892Y-14710655D01*
X7323368Y-14663036D01*
X7323368Y-14624941D01*
X7332892Y-14577322D01*
X7342415Y-14548750D01*
X7351939Y-14529703D01*
X7370987Y-14501131D01*
X7380511Y-14491607D01*
X7456701Y-14586845D02*
X7456701Y-14720179D01*
X7456701Y-14605893D02*
X7466225Y-14596369D01*
X7485273Y-14586845D01*
X7513844Y-14586845D01*
X7532892Y-14596369D01*
X7542415Y-14615417D01*
X7542415Y-14720179D01*
X7666225Y-14720179D02*
X7647177Y-14710655D01*
X7637653Y-14701131D01*
X7628130Y-14682083D01*
X7628130Y-14624941D01*
X7637653Y-14605893D01*
X7647177Y-14596369D01*
X7666225Y-14586845D01*
X7694796Y-14586845D01*
X7713844Y-14596369D01*
X7723368Y-14605893D01*
X7732892Y-14624941D01*
X7732892Y-14682083D01*
X7723368Y-14701131D01*
X7713844Y-14710655D01*
X7694796Y-14720179D01*
X7666225Y-14720179D01*
X7790034Y-14586845D02*
X7866225Y-14586845D01*
X7818606Y-14520179D02*
X7818606Y-14691607D01*
X7828130Y-14710655D01*
X7847177Y-14720179D01*
X7866225Y-14720179D01*
X8085273Y-14586845D02*
X8085273Y-14786845D01*
X8085273Y-14596369D02*
X8104320Y-14586845D01*
X8142415Y-14586845D01*
X8161463Y-14596369D01*
X8170987Y-14605893D01*
X8180511Y-14624941D01*
X8180511Y-14682083D01*
X8170987Y-14701131D01*
X8161463Y-14710655D01*
X8142415Y-14720179D01*
X8104320Y-14720179D01*
X8085273Y-14710655D01*
X8294796Y-14720179D02*
X8275749Y-14710655D01*
X8266225Y-14691607D01*
X8266225Y-14520179D01*
X8456701Y-14720179D02*
X8456701Y-14615417D01*
X8447177Y-14596369D01*
X8428130Y-14586845D01*
X8390035Y-14586845D01*
X8370987Y-14596369D01*
X8456701Y-14710655D02*
X8437654Y-14720179D01*
X8390035Y-14720179D01*
X8370987Y-14710655D01*
X8361463Y-14691607D01*
X8361463Y-14672560D01*
X8370987Y-14653512D01*
X8390035Y-14643988D01*
X8437654Y-14643988D01*
X8456701Y-14634464D01*
X8523368Y-14586845D02*
X8599558Y-14586845D01*
X8551939Y-14520179D02*
X8551939Y-14691607D01*
X8561463Y-14710655D01*
X8580511Y-14720179D01*
X8599558Y-14720179D01*
X8742415Y-14710655D02*
X8723368Y-14720179D01*
X8685273Y-14720179D01*
X8666225Y-14710655D01*
X8656701Y-14691607D01*
X8656701Y-14615417D01*
X8666225Y-14596369D01*
X8685273Y-14586845D01*
X8723368Y-14586845D01*
X8742415Y-14596369D01*
X8751939Y-14615417D01*
X8751939Y-14634464D01*
X8656701Y-14653512D01*
X8923368Y-14720179D02*
X8923368Y-14520179D01*
X8923368Y-14710655D02*
X8904320Y-14720179D01*
X8866225Y-14720179D01*
X8847177Y-14710655D01*
X8837654Y-14701131D01*
X8828130Y-14682083D01*
X8828130Y-14624941D01*
X8837654Y-14605893D01*
X8847177Y-14596369D01*
X8866225Y-14586845D01*
X8904320Y-14586845D01*
X8923368Y-14596369D01*
X8999558Y-14796369D02*
X9009082Y-14786845D01*
X9028130Y-14758274D01*
X9037654Y-14739226D01*
X9047177Y-14710655D01*
X9056701Y-14663036D01*
X9056701Y-14624941D01*
X9047177Y-14577322D01*
X9037654Y-14548750D01*
X9028130Y-14529703D01*
X9009082Y-14501131D01*
X8999558Y-14491607D01*
D15*
X2056225Y-14893703D02*
G75*
G03*
X2056225Y-14893703I-35000J0D01*
G01*
D13*
X2351939Y-14784179D02*
X2370987Y-14784179D01*
X2390035Y-14793703D01*
X2399558Y-14803226D01*
X2409082Y-14822274D01*
X2418606Y-14860369D01*
X2418606Y-14907988D01*
X2409082Y-14946083D01*
X2399558Y-14965131D01*
X2390035Y-14974655D01*
X2370987Y-14984179D01*
X2351939Y-14984179D01*
X2332892Y-14974655D01*
X2323368Y-14965131D01*
X2313844Y-14946083D01*
X2304320Y-14907988D01*
X2304320Y-14860369D01*
X2313844Y-14822274D01*
X2323368Y-14803226D01*
X2332892Y-14793703D01*
X2351939Y-14784179D01*
X2504320Y-14965131D02*
X2513844Y-14974655D01*
X2504320Y-14984179D01*
X2494796Y-14974655D01*
X2504320Y-14965131D01*
X2504320Y-14984179D01*
X2580511Y-14784179D02*
X2713844Y-14784179D01*
X2628130Y-14984179D01*
X2828130Y-14784179D02*
X2847177Y-14784179D01*
X2866225Y-14793703D01*
X2875749Y-14803226D01*
X2885273Y-14822274D01*
X2894796Y-14860369D01*
X2894796Y-14907988D01*
X2885273Y-14946083D01*
X2875749Y-14965131D01*
X2866225Y-14974655D01*
X2847177Y-14984179D01*
X2828130Y-14984179D01*
X2809082Y-14974655D01*
X2799558Y-14965131D01*
X2790035Y-14946083D01*
X2780511Y-14907988D01*
X2780511Y-14860369D01*
X2790035Y-14822274D01*
X2799558Y-14803226D01*
X2809082Y-14793703D01*
X2828130Y-14784179D01*
X3018606Y-14784179D02*
X3037653Y-14784179D01*
X3056701Y-14793703D01*
X3066225Y-14803226D01*
X3075749Y-14822274D01*
X3085273Y-14860369D01*
X3085273Y-14907988D01*
X3075749Y-14946083D01*
X3066225Y-14965131D01*
X3056701Y-14974655D01*
X3037653Y-14984179D01*
X3018606Y-14984179D01*
X2999558Y-14974655D01*
X2990034Y-14965131D01*
X2980511Y-14946083D01*
X2970987Y-14907988D01*
X2970987Y-14860369D01*
X2980511Y-14822274D01*
X2990034Y-14803226D01*
X2999558Y-14793703D01*
X3018606Y-14784179D01*
X3170987Y-14984179D02*
X3170987Y-14850845D01*
X3170987Y-14869893D02*
X3180511Y-14860369D01*
X3199558Y-14850845D01*
X3228130Y-14850845D01*
X3247177Y-14860369D01*
X3256701Y-14879417D01*
X3256701Y-14984179D01*
X3256701Y-14879417D02*
X3266225Y-14860369D01*
X3285273Y-14850845D01*
X3313844Y-14850845D01*
X3332892Y-14860369D01*
X3342415Y-14879417D01*
X3342415Y-14984179D01*
X3437653Y-14984179D02*
X3437653Y-14850845D01*
X3437653Y-14869893D02*
X3447177Y-14860369D01*
X3466225Y-14850845D01*
X3494796Y-14850845D01*
X3513844Y-14860369D01*
X3523368Y-14879417D01*
X3523368Y-14984179D01*
X3523368Y-14879417D02*
X3532892Y-14860369D01*
X3551939Y-14850845D01*
X3580511Y-14850845D01*
X3599558Y-14860369D01*
X3609082Y-14879417D01*
X3609082Y-14984179D01*
X3999558Y-14774655D02*
X3828130Y-15031798D01*
X4256701Y-14784179D02*
X4275749Y-14784179D01*
X4294796Y-14793703D01*
X4304320Y-14803226D01*
X4313844Y-14822274D01*
X4323368Y-14860369D01*
X4323368Y-14907988D01*
X4313844Y-14946083D01*
X4304320Y-14965131D01*
X4294796Y-14974655D01*
X4275749Y-14984179D01*
X4256701Y-14984179D01*
X4237654Y-14974655D01*
X4228130Y-14965131D01*
X4218606Y-14946083D01*
X4209082Y-14907988D01*
X4209082Y-14860369D01*
X4218606Y-14822274D01*
X4228130Y-14803226D01*
X4237654Y-14793703D01*
X4256701Y-14784179D01*
X4409082Y-14965131D02*
X4418606Y-14974655D01*
X4409082Y-14984179D01*
X4399558Y-14974655D01*
X4409082Y-14965131D01*
X4409082Y-14984179D01*
X4542415Y-14784179D02*
X4561463Y-14784179D01*
X4580511Y-14793703D01*
X4590035Y-14803226D01*
X4599558Y-14822274D01*
X4609082Y-14860369D01*
X4609082Y-14907988D01*
X4599558Y-14946083D01*
X4590035Y-14965131D01*
X4580511Y-14974655D01*
X4561463Y-14984179D01*
X4542415Y-14984179D01*
X4523368Y-14974655D01*
X4513844Y-14965131D01*
X4504320Y-14946083D01*
X4494796Y-14907988D01*
X4494796Y-14860369D01*
X4504320Y-14822274D01*
X4513844Y-14803226D01*
X4523368Y-14793703D01*
X4542415Y-14784179D01*
X4685273Y-14803226D02*
X4694796Y-14793703D01*
X4713844Y-14784179D01*
X4761463Y-14784179D01*
X4780511Y-14793703D01*
X4790035Y-14803226D01*
X4799558Y-14822274D01*
X4799558Y-14841322D01*
X4790035Y-14869893D01*
X4675749Y-14984179D01*
X4799558Y-14984179D01*
X4866225Y-14784179D02*
X4999558Y-14784179D01*
X4913844Y-14984179D01*
X5161463Y-14784179D02*
X5123368Y-14784179D01*
X5104320Y-14793703D01*
X5094796Y-14803226D01*
X5075749Y-14831798D01*
X5066225Y-14869893D01*
X5066225Y-14946083D01*
X5075749Y-14965131D01*
X5085273Y-14974655D01*
X5104320Y-14984179D01*
X5142415Y-14984179D01*
X5161463Y-14974655D01*
X5170987Y-14965131D01*
X5180511Y-14946083D01*
X5180511Y-14898464D01*
X5170987Y-14879417D01*
X5161463Y-14869893D01*
X5142415Y-14860369D01*
X5104320Y-14860369D01*
X5085273Y-14869893D01*
X5075749Y-14879417D01*
X5066225Y-14898464D01*
X5256701Y-14784179D02*
X5256701Y-14822274D01*
X5332892Y-14784179D02*
X5332892Y-14822274D01*
X5628130Y-15060369D02*
X5618606Y-15050845D01*
X5599558Y-15022274D01*
X5590035Y-15003226D01*
X5580511Y-14974655D01*
X5570987Y-14927036D01*
X5570987Y-14888941D01*
X5580511Y-14841322D01*
X5590035Y-14812750D01*
X5599558Y-14793703D01*
X5618606Y-14765131D01*
X5628130Y-14755607D01*
X5790034Y-14850845D02*
X5790034Y-14984179D01*
X5742415Y-14774655D02*
X5694796Y-14917512D01*
X5818606Y-14917512D01*
X6047177Y-14984179D02*
X6047177Y-14784179D01*
X6132892Y-14984179D02*
X6132892Y-14879417D01*
X6123368Y-14860369D01*
X6104320Y-14850845D01*
X6075749Y-14850845D01*
X6056701Y-14860369D01*
X6047177Y-14869893D01*
X6256701Y-14984179D02*
X6237653Y-14974655D01*
X6228130Y-14965131D01*
X6218606Y-14946083D01*
X6218606Y-14888941D01*
X6228130Y-14869893D01*
X6237653Y-14860369D01*
X6256701Y-14850845D01*
X6285273Y-14850845D01*
X6304320Y-14860369D01*
X6313844Y-14869893D01*
X6323368Y-14888941D01*
X6323368Y-14946083D01*
X6313844Y-14965131D01*
X6304320Y-14974655D01*
X6285273Y-14984179D01*
X6256701Y-14984179D01*
X6437653Y-14984179D02*
X6418606Y-14974655D01*
X6409082Y-14955607D01*
X6409082Y-14784179D01*
X6590034Y-14974655D02*
X6570987Y-14984179D01*
X6532892Y-14984179D01*
X6513844Y-14974655D01*
X6504320Y-14955607D01*
X6504320Y-14879417D01*
X6513844Y-14860369D01*
X6532892Y-14850845D01*
X6570987Y-14850845D01*
X6590034Y-14860369D01*
X6599558Y-14879417D01*
X6599558Y-14898464D01*
X6504320Y-14917512D01*
X6675749Y-14974655D02*
X6694796Y-14984179D01*
X6732892Y-14984179D01*
X6751939Y-14974655D01*
X6761463Y-14955607D01*
X6761463Y-14946083D01*
X6751939Y-14927036D01*
X6732892Y-14917512D01*
X6704320Y-14917512D01*
X6685273Y-14907988D01*
X6675749Y-14888941D01*
X6675749Y-14879417D01*
X6685273Y-14860369D01*
X6704320Y-14850845D01*
X6732892Y-14850845D01*
X6751939Y-14860369D01*
X6828130Y-15060369D02*
X6837653Y-15050845D01*
X6856701Y-15022274D01*
X6866225Y-15003226D01*
X6875749Y-14974655D01*
X6885273Y-14927036D01*
X6885273Y-14888941D01*
X6875749Y-14841322D01*
X6866225Y-14812750D01*
X6856701Y-14793703D01*
X6837653Y-14765131D01*
X6828130Y-14755607D01*
X7190034Y-15060369D02*
X7180511Y-15050845D01*
X7161463Y-15022274D01*
X7151939Y-15003226D01*
X7142415Y-14974655D01*
X7132892Y-14927036D01*
X7132892Y-14888941D01*
X7142415Y-14841322D01*
X7151939Y-14812750D01*
X7161463Y-14793703D01*
X7180511Y-14765131D01*
X7190034Y-14755607D01*
X7266225Y-14850845D02*
X7266225Y-14984179D01*
X7266225Y-14869893D02*
X7275749Y-14860369D01*
X7294796Y-14850845D01*
X7323368Y-14850845D01*
X7342415Y-14860369D01*
X7351939Y-14879417D01*
X7351939Y-14984179D01*
X7475749Y-14984179D02*
X7456701Y-14974655D01*
X7447177Y-14965131D01*
X7437653Y-14946083D01*
X7437653Y-14888941D01*
X7447177Y-14869893D01*
X7456701Y-14860369D01*
X7475749Y-14850845D01*
X7504320Y-14850845D01*
X7523368Y-14860369D01*
X7532892Y-14869893D01*
X7542415Y-14888941D01*
X7542415Y-14946083D01*
X7532892Y-14965131D01*
X7523368Y-14974655D01*
X7504320Y-14984179D01*
X7475749Y-14984179D01*
X7599558Y-14850845D02*
X7675749Y-14850845D01*
X7628130Y-14784179D02*
X7628130Y-14955607D01*
X7637653Y-14974655D01*
X7656701Y-14984179D01*
X7675749Y-14984179D01*
X7894796Y-14850845D02*
X7894796Y-15050845D01*
X7894796Y-14860369D02*
X7913844Y-14850845D01*
X7951939Y-14850845D01*
X7970987Y-14860369D01*
X7980511Y-14869893D01*
X7990034Y-14888941D01*
X7990034Y-14946083D01*
X7980511Y-14965131D01*
X7970987Y-14974655D01*
X7951939Y-14984179D01*
X7913844Y-14984179D01*
X7894796Y-14974655D01*
X8104320Y-14984179D02*
X8085273Y-14974655D01*
X8075749Y-14955607D01*
X8075749Y-14784179D01*
X8266225Y-14984179D02*
X8266225Y-14879417D01*
X8256701Y-14860369D01*
X8237653Y-14850845D01*
X8199558Y-14850845D01*
X8180511Y-14860369D01*
X8266225Y-14974655D02*
X8247177Y-14984179D01*
X8199558Y-14984179D01*
X8180511Y-14974655D01*
X8170987Y-14955607D01*
X8170987Y-14936560D01*
X8180511Y-14917512D01*
X8199558Y-14907988D01*
X8247177Y-14907988D01*
X8266225Y-14898464D01*
X8332892Y-14850845D02*
X8409082Y-14850845D01*
X8361463Y-14784179D02*
X8361463Y-14955607D01*
X8370987Y-14974655D01*
X8390035Y-14984179D01*
X8409082Y-14984179D01*
X8551939Y-14974655D02*
X8532892Y-14984179D01*
X8494796Y-14984179D01*
X8475749Y-14974655D01*
X8466225Y-14955607D01*
X8466225Y-14879417D01*
X8475749Y-14860369D01*
X8494796Y-14850845D01*
X8532892Y-14850845D01*
X8551939Y-14860369D01*
X8561463Y-14879417D01*
X8561463Y-14898464D01*
X8466225Y-14917512D01*
X8732892Y-14984179D02*
X8732892Y-14784179D01*
X8732892Y-14974655D02*
X8713844Y-14984179D01*
X8675749Y-14984179D01*
X8656701Y-14974655D01*
X8647177Y-14965131D01*
X8637654Y-14946083D01*
X8637654Y-14888941D01*
X8647177Y-14869893D01*
X8656701Y-14860369D01*
X8675749Y-14850845D01*
X8713844Y-14850845D01*
X8732892Y-14860369D01*
X8809082Y-15060369D02*
X8818606Y-15050845D01*
X8837654Y-15022274D01*
X8847177Y-15003226D01*
X8856701Y-14974655D01*
X8866225Y-14927036D01*
X8866225Y-14888941D01*
X8856701Y-14841322D01*
X8847177Y-14812750D01*
X8837654Y-14793703D01*
X8818606Y-14765131D01*
X8809082Y-14755607D01*
D16*
X1996225Y-15097703D02*
X1996225Y-15217703D01*
X1936225Y-15157703D02*
X2056225Y-15157703D01*
D13*
X2418606Y-15248179D02*
X2304320Y-15248179D01*
X2361463Y-15248179D02*
X2361463Y-15048179D01*
X2342415Y-15076750D01*
X2323368Y-15095798D01*
X2304320Y-15105322D01*
X2504320Y-15229131D02*
X2513844Y-15238655D01*
X2504320Y-15248179D01*
X2494796Y-15238655D01*
X2504320Y-15229131D01*
X2504320Y-15248179D01*
X2590035Y-15067226D02*
X2599558Y-15057703D01*
X2618606Y-15048179D01*
X2666225Y-15048179D01*
X2685273Y-15057703D01*
X2694796Y-15067226D01*
X2704320Y-15086274D01*
X2704320Y-15105322D01*
X2694796Y-15133893D01*
X2580511Y-15248179D01*
X2704320Y-15248179D01*
X2828130Y-15048179D02*
X2847177Y-15048179D01*
X2866225Y-15057703D01*
X2875749Y-15067226D01*
X2885273Y-15086274D01*
X2894796Y-15124369D01*
X2894796Y-15171988D01*
X2885273Y-15210083D01*
X2875749Y-15229131D01*
X2866225Y-15238655D01*
X2847177Y-15248179D01*
X2828130Y-15248179D01*
X2809082Y-15238655D01*
X2799558Y-15229131D01*
X2790035Y-15210083D01*
X2780511Y-15171988D01*
X2780511Y-15124369D01*
X2790035Y-15086274D01*
X2799558Y-15067226D01*
X2809082Y-15057703D01*
X2828130Y-15048179D01*
X3018606Y-15048179D02*
X3037653Y-15048179D01*
X3056701Y-15057703D01*
X3066225Y-15067226D01*
X3075749Y-15086274D01*
X3085273Y-15124369D01*
X3085273Y-15171988D01*
X3075749Y-15210083D01*
X3066225Y-15229131D01*
X3056701Y-15238655D01*
X3037653Y-15248179D01*
X3018606Y-15248179D01*
X2999558Y-15238655D01*
X2990034Y-15229131D01*
X2980511Y-15210083D01*
X2970987Y-15171988D01*
X2970987Y-15124369D01*
X2980511Y-15086274D01*
X2990034Y-15067226D01*
X2999558Y-15057703D01*
X3018606Y-15048179D01*
X3170987Y-15248179D02*
X3170987Y-15114845D01*
X3170987Y-15133893D02*
X3180511Y-15124369D01*
X3199558Y-15114845D01*
X3228130Y-15114845D01*
X3247177Y-15124369D01*
X3256701Y-15143417D01*
X3256701Y-15248179D01*
X3256701Y-15143417D02*
X3266225Y-15124369D01*
X3285273Y-15114845D01*
X3313844Y-15114845D01*
X3332892Y-15124369D01*
X3342415Y-15143417D01*
X3342415Y-15248179D01*
X3437653Y-15248179D02*
X3437653Y-15114845D01*
X3437653Y-15133893D02*
X3447177Y-15124369D01*
X3466225Y-15114845D01*
X3494796Y-15114845D01*
X3513844Y-15124369D01*
X3523368Y-15143417D01*
X3523368Y-15248179D01*
X3523368Y-15143417D02*
X3532892Y-15124369D01*
X3551939Y-15114845D01*
X3580511Y-15114845D01*
X3599558Y-15124369D01*
X3609082Y-15143417D01*
X3609082Y-15248179D01*
X3999558Y-15038655D02*
X3828130Y-15295798D01*
X4256701Y-15048179D02*
X4275749Y-15048179D01*
X4294796Y-15057703D01*
X4304320Y-15067226D01*
X4313844Y-15086274D01*
X4323368Y-15124369D01*
X4323368Y-15171988D01*
X4313844Y-15210083D01*
X4304320Y-15229131D01*
X4294796Y-15238655D01*
X4275749Y-15248179D01*
X4256701Y-15248179D01*
X4237654Y-15238655D01*
X4228130Y-15229131D01*
X4218606Y-15210083D01*
X4209082Y-15171988D01*
X4209082Y-15124369D01*
X4218606Y-15086274D01*
X4228130Y-15067226D01*
X4237654Y-15057703D01*
X4256701Y-15048179D01*
X4409082Y-15229131D02*
X4418606Y-15238655D01*
X4409082Y-15248179D01*
X4399558Y-15238655D01*
X4409082Y-15229131D01*
X4409082Y-15248179D01*
X4542415Y-15048179D02*
X4561463Y-15048179D01*
X4580511Y-15057703D01*
X4590035Y-15067226D01*
X4599558Y-15086274D01*
X4609082Y-15124369D01*
X4609082Y-15171988D01*
X4599558Y-15210083D01*
X4590035Y-15229131D01*
X4580511Y-15238655D01*
X4561463Y-15248179D01*
X4542415Y-15248179D01*
X4523368Y-15238655D01*
X4513844Y-15229131D01*
X4504320Y-15210083D01*
X4494796Y-15171988D01*
X4494796Y-15124369D01*
X4504320Y-15086274D01*
X4513844Y-15067226D01*
X4523368Y-15057703D01*
X4542415Y-15048179D01*
X4780511Y-15114845D02*
X4780511Y-15248179D01*
X4732892Y-15038655D02*
X4685273Y-15181512D01*
X4809082Y-15181512D01*
X4866225Y-15048179D02*
X4999558Y-15048179D01*
X4913844Y-15248179D01*
X5066225Y-15067226D02*
X5075749Y-15057703D01*
X5094796Y-15048179D01*
X5142415Y-15048179D01*
X5161463Y-15057703D01*
X5170987Y-15067226D01*
X5180511Y-15086274D01*
X5180511Y-15105322D01*
X5170987Y-15133893D01*
X5056701Y-15248179D01*
X5180511Y-15248179D01*
X5256701Y-15048179D02*
X5256701Y-15086274D01*
X5332892Y-15048179D02*
X5332892Y-15086274D01*
X5628130Y-15324369D02*
X5618606Y-15314845D01*
X5599558Y-15286274D01*
X5590035Y-15267226D01*
X5580511Y-15238655D01*
X5570987Y-15191036D01*
X5570987Y-15152941D01*
X5580511Y-15105322D01*
X5590035Y-15076750D01*
X5599558Y-15057703D01*
X5618606Y-15029131D01*
X5628130Y-15019607D01*
X5790034Y-15114845D02*
X5790034Y-15248179D01*
X5742415Y-15038655D02*
X5694796Y-15181512D01*
X5818606Y-15181512D01*
X6047177Y-15248179D02*
X6047177Y-15048179D01*
X6132892Y-15248179D02*
X6132892Y-15143417D01*
X6123368Y-15124369D01*
X6104320Y-15114845D01*
X6075749Y-15114845D01*
X6056701Y-15124369D01*
X6047177Y-15133893D01*
X6256701Y-15248179D02*
X6237653Y-15238655D01*
X6228130Y-15229131D01*
X6218606Y-15210083D01*
X6218606Y-15152941D01*
X6228130Y-15133893D01*
X6237653Y-15124369D01*
X6256701Y-15114845D01*
X6285273Y-15114845D01*
X6304320Y-15124369D01*
X6313844Y-15133893D01*
X6323368Y-15152941D01*
X6323368Y-15210083D01*
X6313844Y-15229131D01*
X6304320Y-15238655D01*
X6285273Y-15248179D01*
X6256701Y-15248179D01*
X6437653Y-15248179D02*
X6418606Y-15238655D01*
X6409082Y-15219607D01*
X6409082Y-15048179D01*
X6590034Y-15238655D02*
X6570987Y-15248179D01*
X6532892Y-15248179D01*
X6513844Y-15238655D01*
X6504320Y-15219607D01*
X6504320Y-15143417D01*
X6513844Y-15124369D01*
X6532892Y-15114845D01*
X6570987Y-15114845D01*
X6590034Y-15124369D01*
X6599558Y-15143417D01*
X6599558Y-15162464D01*
X6504320Y-15181512D01*
X6675749Y-15238655D02*
X6694796Y-15248179D01*
X6732892Y-15248179D01*
X6751939Y-15238655D01*
X6761463Y-15219607D01*
X6761463Y-15210083D01*
X6751939Y-15191036D01*
X6732892Y-15181512D01*
X6704320Y-15181512D01*
X6685273Y-15171988D01*
X6675749Y-15152941D01*
X6675749Y-15143417D01*
X6685273Y-15124369D01*
X6704320Y-15114845D01*
X6732892Y-15114845D01*
X6751939Y-15124369D01*
X6828130Y-15324369D02*
X6837653Y-15314845D01*
X6856701Y-15286274D01*
X6866225Y-15267226D01*
X6875749Y-15238655D01*
X6885273Y-15191036D01*
X6885273Y-15152941D01*
X6875749Y-15105322D01*
X6866225Y-15076750D01*
X6856701Y-15057703D01*
X6837653Y-15029131D01*
X6828130Y-15019607D01*
X7190034Y-15324369D02*
X7180511Y-15314845D01*
X7161463Y-15286274D01*
X7151939Y-15267226D01*
X7142415Y-15238655D01*
X7132892Y-15191036D01*
X7132892Y-15152941D01*
X7142415Y-15105322D01*
X7151939Y-15076750D01*
X7161463Y-15057703D01*
X7180511Y-15029131D01*
X7190034Y-15019607D01*
X7266225Y-15114845D02*
X7266225Y-15248179D01*
X7266225Y-15133893D02*
X7275749Y-15124369D01*
X7294796Y-15114845D01*
X7323368Y-15114845D01*
X7342415Y-15124369D01*
X7351939Y-15143417D01*
X7351939Y-15248179D01*
X7475749Y-15248179D02*
X7456701Y-15238655D01*
X7447177Y-15229131D01*
X7437653Y-15210083D01*
X7437653Y-15152941D01*
X7447177Y-15133893D01*
X7456701Y-15124369D01*
X7475749Y-15114845D01*
X7504320Y-15114845D01*
X7523368Y-15124369D01*
X7532892Y-15133893D01*
X7542415Y-15152941D01*
X7542415Y-15210083D01*
X7532892Y-15229131D01*
X7523368Y-15238655D01*
X7504320Y-15248179D01*
X7475749Y-15248179D01*
X7599558Y-15114845D02*
X7675749Y-15114845D01*
X7628130Y-15048179D02*
X7628130Y-15219607D01*
X7637653Y-15238655D01*
X7656701Y-15248179D01*
X7675749Y-15248179D01*
X7894796Y-15114845D02*
X7894796Y-15314845D01*
X7894796Y-15124369D02*
X7913844Y-15114845D01*
X7951939Y-15114845D01*
X7970987Y-15124369D01*
X7980511Y-15133893D01*
X7990034Y-15152941D01*
X7990034Y-15210083D01*
X7980511Y-15229131D01*
X7970987Y-15238655D01*
X7951939Y-15248179D01*
X7913844Y-15248179D01*
X7894796Y-15238655D01*
X8104320Y-15248179D02*
X8085273Y-15238655D01*
X8075749Y-15219607D01*
X8075749Y-15048179D01*
X8266225Y-15248179D02*
X8266225Y-15143417D01*
X8256701Y-15124369D01*
X8237653Y-15114845D01*
X8199558Y-15114845D01*
X8180511Y-15124369D01*
X8266225Y-15238655D02*
X8247177Y-15248179D01*
X8199558Y-15248179D01*
X8180511Y-15238655D01*
X8170987Y-15219607D01*
X8170987Y-15200560D01*
X8180511Y-15181512D01*
X8199558Y-15171988D01*
X8247177Y-15171988D01*
X8266225Y-15162464D01*
X8332892Y-15114845D02*
X8409082Y-15114845D01*
X8361463Y-15048179D02*
X8361463Y-15219607D01*
X8370987Y-15238655D01*
X8390035Y-15248179D01*
X8409082Y-15248179D01*
X8551939Y-15238655D02*
X8532892Y-15248179D01*
X8494796Y-15248179D01*
X8475749Y-15238655D01*
X8466225Y-15219607D01*
X8466225Y-15143417D01*
X8475749Y-15124369D01*
X8494796Y-15114845D01*
X8532892Y-15114845D01*
X8551939Y-15124369D01*
X8561463Y-15143417D01*
X8561463Y-15162464D01*
X8466225Y-15181512D01*
X8732892Y-15248179D02*
X8732892Y-15048179D01*
X8732892Y-15238655D02*
X8713844Y-15248179D01*
X8675749Y-15248179D01*
X8656701Y-15238655D01*
X8647177Y-15229131D01*
X8637654Y-15210083D01*
X8637654Y-15152941D01*
X8647177Y-15133893D01*
X8656701Y-15124369D01*
X8675749Y-15114845D01*
X8713844Y-15114845D01*
X8732892Y-15124369D01*
X8809082Y-15324369D02*
X8818606Y-15314845D01*
X8837654Y-15286274D01*
X8847177Y-15267226D01*
X8856701Y-15238655D01*
X8866225Y-15191036D01*
X8866225Y-15152941D01*
X8856701Y-15105322D01*
X8847177Y-15076750D01*
X8837654Y-15057703D01*
X8818606Y-15029131D01*
X8809082Y-15019607D01*
D17*
X2031303Y-15481871D02*
X2031303Y-15361534D01*
X1910967Y-15361534D01*
X1910967Y-15481871D01*
X2031303Y-15481871D01*
D13*
X2418606Y-15512179D02*
X2304320Y-15512179D01*
X2361463Y-15512179D02*
X2361463Y-15312179D01*
X2342415Y-15340750D01*
X2323368Y-15359798D01*
X2304320Y-15369322D01*
X2504320Y-15493131D02*
X2513844Y-15502655D01*
X2504320Y-15512179D01*
X2494796Y-15502655D01*
X2504320Y-15493131D01*
X2504320Y-15512179D01*
X2580511Y-15312179D02*
X2713844Y-15312179D01*
X2628130Y-15512179D01*
X2828130Y-15312179D02*
X2847177Y-15312179D01*
X2866225Y-15321703D01*
X2875749Y-15331226D01*
X2885273Y-15350274D01*
X2894796Y-15388369D01*
X2894796Y-15435988D01*
X2885273Y-15474083D01*
X2875749Y-15493131D01*
X2866225Y-15502655D01*
X2847177Y-15512179D01*
X2828130Y-15512179D01*
X2809082Y-15502655D01*
X2799558Y-15493131D01*
X2790035Y-15474083D01*
X2780511Y-15435988D01*
X2780511Y-15388369D01*
X2790035Y-15350274D01*
X2799558Y-15331226D01*
X2809082Y-15321703D01*
X2828130Y-15312179D01*
X2970987Y-15331226D02*
X2980511Y-15321703D01*
X2999558Y-15312179D01*
X3047177Y-15312179D01*
X3066225Y-15321703D01*
X3075749Y-15331226D01*
X3085273Y-15350274D01*
X3085273Y-15369322D01*
X3075749Y-15397893D01*
X2961463Y-15512179D01*
X3085273Y-15512179D01*
X3170987Y-15512179D02*
X3170987Y-15378845D01*
X3170987Y-15397893D02*
X3180511Y-15388369D01*
X3199558Y-15378845D01*
X3228130Y-15378845D01*
X3247177Y-15388369D01*
X3256701Y-15407417D01*
X3256701Y-15512179D01*
X3256701Y-15407417D02*
X3266225Y-15388369D01*
X3285273Y-15378845D01*
X3313844Y-15378845D01*
X3332892Y-15388369D01*
X3342415Y-15407417D01*
X3342415Y-15512179D01*
X3437653Y-15512179D02*
X3437653Y-15378845D01*
X3437653Y-15397893D02*
X3447177Y-15388369D01*
X3466225Y-15378845D01*
X3494796Y-15378845D01*
X3513844Y-15388369D01*
X3523368Y-15407417D01*
X3523368Y-15512179D01*
X3523368Y-15407417D02*
X3532892Y-15388369D01*
X3551939Y-15378845D01*
X3580511Y-15378845D01*
X3599558Y-15388369D01*
X3609082Y-15407417D01*
X3609082Y-15512179D01*
X3999558Y-15302655D02*
X3828130Y-15559798D01*
X4256701Y-15312179D02*
X4275749Y-15312179D01*
X4294796Y-15321703D01*
X4304320Y-15331226D01*
X4313844Y-15350274D01*
X4323368Y-15388369D01*
X4323368Y-15435988D01*
X4313844Y-15474083D01*
X4304320Y-15493131D01*
X4294796Y-15502655D01*
X4275749Y-15512179D01*
X4256701Y-15512179D01*
X4237654Y-15502655D01*
X4228130Y-15493131D01*
X4218606Y-15474083D01*
X4209082Y-15435988D01*
X4209082Y-15388369D01*
X4218606Y-15350274D01*
X4228130Y-15331226D01*
X4237654Y-15321703D01*
X4256701Y-15312179D01*
X4409082Y-15493131D02*
X4418606Y-15502655D01*
X4409082Y-15512179D01*
X4399558Y-15502655D01*
X4409082Y-15493131D01*
X4409082Y-15512179D01*
X4542415Y-15312179D02*
X4561463Y-15312179D01*
X4580511Y-15321703D01*
X4590035Y-15331226D01*
X4599558Y-15350274D01*
X4609082Y-15388369D01*
X4609082Y-15435988D01*
X4599558Y-15474083D01*
X4590035Y-15493131D01*
X4580511Y-15502655D01*
X4561463Y-15512179D01*
X4542415Y-15512179D01*
X4523368Y-15502655D01*
X4513844Y-15493131D01*
X4504320Y-15474083D01*
X4494796Y-15435988D01*
X4494796Y-15388369D01*
X4504320Y-15350274D01*
X4513844Y-15331226D01*
X4523368Y-15321703D01*
X4542415Y-15312179D01*
X4780511Y-15312179D02*
X4742415Y-15312179D01*
X4723368Y-15321703D01*
X4713844Y-15331226D01*
X4694796Y-15359798D01*
X4685273Y-15397893D01*
X4685273Y-15474083D01*
X4694796Y-15493131D01*
X4704320Y-15502655D01*
X4723368Y-15512179D01*
X4761463Y-15512179D01*
X4780511Y-15502655D01*
X4790035Y-15493131D01*
X4799558Y-15474083D01*
X4799558Y-15426464D01*
X4790035Y-15407417D01*
X4780511Y-15397893D01*
X4761463Y-15388369D01*
X4723368Y-15388369D01*
X4704320Y-15397893D01*
X4694796Y-15407417D01*
X4685273Y-15426464D01*
X4866225Y-15312179D02*
X4999558Y-15312179D01*
X4913844Y-15512179D01*
X5113844Y-15312179D02*
X5132892Y-15312179D01*
X5151939Y-15321703D01*
X5161463Y-15331226D01*
X5170987Y-15350274D01*
X5180511Y-15388369D01*
X5180511Y-15435988D01*
X5170987Y-15474083D01*
X5161463Y-15493131D01*
X5151939Y-15502655D01*
X5132892Y-15512179D01*
X5113844Y-15512179D01*
X5094796Y-15502655D01*
X5085273Y-15493131D01*
X5075749Y-15474083D01*
X5066225Y-15435988D01*
X5066225Y-15388369D01*
X5075749Y-15350274D01*
X5085273Y-15331226D01*
X5094796Y-15321703D01*
X5113844Y-15312179D01*
X5256701Y-15312179D02*
X5256701Y-15350274D01*
X5332892Y-15312179D02*
X5332892Y-15350274D01*
X5628130Y-15588369D02*
X5618606Y-15578845D01*
X5599558Y-15550274D01*
X5590035Y-15531226D01*
X5580511Y-15502655D01*
X5570987Y-15455036D01*
X5570987Y-15416941D01*
X5580511Y-15369322D01*
X5590035Y-15340750D01*
X5599558Y-15321703D01*
X5618606Y-15293131D01*
X5628130Y-15283607D01*
X5685273Y-15312179D02*
X5818606Y-15312179D01*
X5732892Y-15512179D01*
X5980511Y-15312179D02*
X5942415Y-15312179D01*
X5923368Y-15321703D01*
X5913844Y-15331226D01*
X5894796Y-15359798D01*
X5885273Y-15397893D01*
X5885273Y-15474083D01*
X5894796Y-15493131D01*
X5904320Y-15502655D01*
X5923368Y-15512179D01*
X5961463Y-15512179D01*
X5980511Y-15502655D01*
X5990034Y-15493131D01*
X5999558Y-15474083D01*
X5999558Y-15426464D01*
X5990034Y-15407417D01*
X5980511Y-15397893D01*
X5961463Y-15388369D01*
X5923368Y-15388369D01*
X5904320Y-15397893D01*
X5894796Y-15407417D01*
X5885273Y-15426464D01*
X6237653Y-15512179D02*
X6237653Y-15312179D01*
X6323368Y-15512179D02*
X6323368Y-15407417D01*
X6313844Y-15388369D01*
X6294796Y-15378845D01*
X6266225Y-15378845D01*
X6247177Y-15388369D01*
X6237653Y-15397893D01*
X6447177Y-15512179D02*
X6428130Y-15502655D01*
X6418606Y-15493131D01*
X6409082Y-15474083D01*
X6409082Y-15416941D01*
X6418606Y-15397893D01*
X6428130Y-15388369D01*
X6447177Y-15378845D01*
X6475749Y-15378845D01*
X6494796Y-15388369D01*
X6504320Y-15397893D01*
X6513844Y-15416941D01*
X6513844Y-15474083D01*
X6504320Y-15493131D01*
X6494796Y-15502655D01*
X6475749Y-15512179D01*
X6447177Y-15512179D01*
X6628130Y-15512179D02*
X6609082Y-15502655D01*
X6599558Y-15483607D01*
X6599558Y-15312179D01*
X6780511Y-15502655D02*
X6761463Y-15512179D01*
X6723368Y-15512179D01*
X6704320Y-15502655D01*
X6694796Y-15483607D01*
X6694796Y-15407417D01*
X6704320Y-15388369D01*
X6723368Y-15378845D01*
X6761463Y-15378845D01*
X6780511Y-15388369D01*
X6790034Y-15407417D01*
X6790034Y-15426464D01*
X6694796Y-15445512D01*
X6866225Y-15502655D02*
X6885273Y-15512179D01*
X6923368Y-15512179D01*
X6942415Y-15502655D01*
X6951939Y-15483607D01*
X6951939Y-15474083D01*
X6942415Y-15455036D01*
X6923368Y-15445512D01*
X6894796Y-15445512D01*
X6875749Y-15435988D01*
X6866225Y-15416941D01*
X6866225Y-15407417D01*
X6875749Y-15388369D01*
X6894796Y-15378845D01*
X6923368Y-15378845D01*
X6942415Y-15388369D01*
X7018606Y-15588369D02*
X7028130Y-15578845D01*
X7047177Y-15550274D01*
X7056701Y-15531226D01*
X7066225Y-15502655D01*
X7075749Y-15455036D01*
X7075749Y-15416941D01*
X7066225Y-15369322D01*
X7056701Y-15340750D01*
X7047177Y-15321703D01*
X7028130Y-15293131D01*
X7018606Y-15283607D01*
X7380511Y-15588369D02*
X7370987Y-15578845D01*
X7351939Y-15550274D01*
X7342415Y-15531226D01*
X7332892Y-15502655D01*
X7323368Y-15455036D01*
X7323368Y-15416941D01*
X7332892Y-15369322D01*
X7342415Y-15340750D01*
X7351939Y-15321703D01*
X7370987Y-15293131D01*
X7380511Y-15283607D01*
X7456701Y-15378845D02*
X7456701Y-15512179D01*
X7456701Y-15397893D02*
X7466225Y-15388369D01*
X7485273Y-15378845D01*
X7513844Y-15378845D01*
X7532892Y-15388369D01*
X7542415Y-15407417D01*
X7542415Y-15512179D01*
X7666225Y-15512179D02*
X7647177Y-15502655D01*
X7637653Y-15493131D01*
X7628130Y-15474083D01*
X7628130Y-15416941D01*
X7637653Y-15397893D01*
X7647177Y-15388369D01*
X7666225Y-15378845D01*
X7694796Y-15378845D01*
X7713844Y-15388369D01*
X7723368Y-15397893D01*
X7732892Y-15416941D01*
X7732892Y-15474083D01*
X7723368Y-15493131D01*
X7713844Y-15502655D01*
X7694796Y-15512179D01*
X7666225Y-15512179D01*
X7790034Y-15378845D02*
X7866225Y-15378845D01*
X7818606Y-15312179D02*
X7818606Y-15483607D01*
X7828130Y-15502655D01*
X7847177Y-15512179D01*
X7866225Y-15512179D01*
X8085273Y-15378845D02*
X8085273Y-15578845D01*
X8085273Y-15388369D02*
X8104320Y-15378845D01*
X8142415Y-15378845D01*
X8161463Y-15388369D01*
X8170987Y-15397893D01*
X8180511Y-15416941D01*
X8180511Y-15474083D01*
X8170987Y-15493131D01*
X8161463Y-15502655D01*
X8142415Y-15512179D01*
X8104320Y-15512179D01*
X8085273Y-15502655D01*
X8294796Y-15512179D02*
X8275749Y-15502655D01*
X8266225Y-15483607D01*
X8266225Y-15312179D01*
X8456701Y-15512179D02*
X8456701Y-15407417D01*
X8447177Y-15388369D01*
X8428130Y-15378845D01*
X8390035Y-15378845D01*
X8370987Y-15388369D01*
X8456701Y-15502655D02*
X8437654Y-15512179D01*
X8390035Y-15512179D01*
X8370987Y-15502655D01*
X8361463Y-15483607D01*
X8361463Y-15464560D01*
X8370987Y-15445512D01*
X8390035Y-15435988D01*
X8437654Y-15435988D01*
X8456701Y-15426464D01*
X8523368Y-15378845D02*
X8599558Y-15378845D01*
X8551939Y-15312179D02*
X8551939Y-15483607D01*
X8561463Y-15502655D01*
X8580511Y-15512179D01*
X8599558Y-15512179D01*
X8742415Y-15502655D02*
X8723368Y-15512179D01*
X8685273Y-15512179D01*
X8666225Y-15502655D01*
X8656701Y-15483607D01*
X8656701Y-15407417D01*
X8666225Y-15388369D01*
X8685273Y-15378845D01*
X8723368Y-15378845D01*
X8742415Y-15388369D01*
X8751939Y-15407417D01*
X8751939Y-15426464D01*
X8656701Y-15445512D01*
X8923368Y-15512179D02*
X8923368Y-15312179D01*
X8923368Y-15502655D02*
X8904320Y-15512179D01*
X8866225Y-15512179D01*
X8847177Y-15502655D01*
X8837654Y-15493131D01*
X8828130Y-15474083D01*
X8828130Y-15416941D01*
X8837654Y-15397893D01*
X8847177Y-15388369D01*
X8866225Y-15378845D01*
X8904320Y-15378845D01*
X8923368Y-15388369D01*
X8999558Y-15588369D02*
X9009082Y-15578845D01*
X9028130Y-15550274D01*
X9037654Y-15531226D01*
X9047177Y-15502655D01*
X9056701Y-15455036D01*
X9056701Y-15416941D01*
X9047177Y-15369322D01*
X9037654Y-15340750D01*
X9028130Y-15321703D01*
X9009082Y-15293131D01*
X8999558Y-15283607D01*
X1956225Y-15811883D02*
X2056225Y-15711883D01*
X1956225Y-15611883D01*
X1856225Y-15711883D01*
X1956225Y-15811883D01*
X2294796Y-15602359D02*
X2418606Y-15602359D01*
X2351939Y-15678549D01*
X2380511Y-15678549D01*
X2399558Y-15688073D01*
X2409082Y-15697597D01*
X2418606Y-15716644D01*
X2418606Y-15764263D01*
X2409082Y-15783311D01*
X2399558Y-15792835D01*
X2380511Y-15802359D01*
X2323368Y-15802359D01*
X2304320Y-15792835D01*
X2294796Y-15783311D01*
X2504320Y-15783311D02*
X2513844Y-15792835D01*
X2504320Y-15802359D01*
X2494796Y-15792835D01*
X2504320Y-15783311D01*
X2504320Y-15802359D01*
X2637654Y-15602359D02*
X2656701Y-15602359D01*
X2675749Y-15611883D01*
X2685273Y-15621406D01*
X2694796Y-15640454D01*
X2704320Y-15678549D01*
X2704320Y-15726168D01*
X2694796Y-15764263D01*
X2685273Y-15783311D01*
X2675749Y-15792835D01*
X2656701Y-15802359D01*
X2637654Y-15802359D01*
X2618606Y-15792835D01*
X2609082Y-15783311D01*
X2599558Y-15764263D01*
X2590035Y-15726168D01*
X2590035Y-15678549D01*
X2599558Y-15640454D01*
X2609082Y-15621406D01*
X2618606Y-15611883D01*
X2637654Y-15602359D01*
X2828130Y-15602359D02*
X2847177Y-15602359D01*
X2866225Y-15611883D01*
X2875749Y-15621406D01*
X2885273Y-15640454D01*
X2894796Y-15678549D01*
X2894796Y-15726168D01*
X2885273Y-15764263D01*
X2875749Y-15783311D01*
X2866225Y-15792835D01*
X2847177Y-15802359D01*
X2828130Y-15802359D01*
X2809082Y-15792835D01*
X2799558Y-15783311D01*
X2790035Y-15764263D01*
X2780511Y-15726168D01*
X2780511Y-15678549D01*
X2790035Y-15640454D01*
X2799558Y-15621406D01*
X2809082Y-15611883D01*
X2828130Y-15602359D01*
X3018606Y-15602359D02*
X3037653Y-15602359D01*
X3056701Y-15611883D01*
X3066225Y-15621406D01*
X3075749Y-15640454D01*
X3085273Y-15678549D01*
X3085273Y-15726168D01*
X3075749Y-15764263D01*
X3066225Y-15783311D01*
X3056701Y-15792835D01*
X3037653Y-15802359D01*
X3018606Y-15802359D01*
X2999558Y-15792835D01*
X2990034Y-15783311D01*
X2980511Y-15764263D01*
X2970987Y-15726168D01*
X2970987Y-15678549D01*
X2980511Y-15640454D01*
X2990034Y-15621406D01*
X2999558Y-15611883D01*
X3018606Y-15602359D01*
X3170987Y-15802359D02*
X3170987Y-15669025D01*
X3170987Y-15688073D02*
X3180511Y-15678549D01*
X3199558Y-15669025D01*
X3228130Y-15669025D01*
X3247177Y-15678549D01*
X3256701Y-15697597D01*
X3256701Y-15802359D01*
X3256701Y-15697597D02*
X3266225Y-15678549D01*
X3285273Y-15669025D01*
X3313844Y-15669025D01*
X3332892Y-15678549D01*
X3342415Y-15697597D01*
X3342415Y-15802359D01*
X3437653Y-15802359D02*
X3437653Y-15669025D01*
X3437653Y-15688073D02*
X3447177Y-15678549D01*
X3466225Y-15669025D01*
X3494796Y-15669025D01*
X3513844Y-15678549D01*
X3523368Y-15697597D01*
X3523368Y-15802359D01*
X3523368Y-15697597D02*
X3532892Y-15678549D01*
X3551939Y-15669025D01*
X3580511Y-15669025D01*
X3599558Y-15678549D01*
X3609082Y-15697597D01*
X3609082Y-15802359D01*
X3999558Y-15592835D02*
X3828130Y-15849978D01*
X4256701Y-15602359D02*
X4275749Y-15602359D01*
X4294796Y-15611883D01*
X4304320Y-15621406D01*
X4313844Y-15640454D01*
X4323368Y-15678549D01*
X4323368Y-15726168D01*
X4313844Y-15764263D01*
X4304320Y-15783311D01*
X4294796Y-15792835D01*
X4275749Y-15802359D01*
X4256701Y-15802359D01*
X4237654Y-15792835D01*
X4228130Y-15783311D01*
X4218606Y-15764263D01*
X4209082Y-15726168D01*
X4209082Y-15678549D01*
X4218606Y-15640454D01*
X4228130Y-15621406D01*
X4237654Y-15611883D01*
X4256701Y-15602359D01*
X4409082Y-15783311D02*
X4418606Y-15792835D01*
X4409082Y-15802359D01*
X4399558Y-15792835D01*
X4409082Y-15783311D01*
X4409082Y-15802359D01*
X4609082Y-15802359D02*
X4494796Y-15802359D01*
X4551939Y-15802359D02*
X4551939Y-15602359D01*
X4532892Y-15630930D01*
X4513844Y-15649978D01*
X4494796Y-15659502D01*
X4799558Y-15802359D02*
X4685273Y-15802359D01*
X4742415Y-15802359D02*
X4742415Y-15602359D01*
X4723368Y-15630930D01*
X4704320Y-15649978D01*
X4685273Y-15659502D01*
X4913844Y-15688073D02*
X4894796Y-15678549D01*
X4885273Y-15669025D01*
X4875749Y-15649978D01*
X4875749Y-15640454D01*
X4885273Y-15621406D01*
X4894796Y-15611883D01*
X4913844Y-15602359D01*
X4951939Y-15602359D01*
X4970987Y-15611883D01*
X4980511Y-15621406D01*
X4990035Y-15640454D01*
X4990035Y-15649978D01*
X4980511Y-15669025D01*
X4970987Y-15678549D01*
X4951939Y-15688073D01*
X4913844Y-15688073D01*
X4894796Y-15697597D01*
X4885273Y-15707121D01*
X4875749Y-15726168D01*
X4875749Y-15764263D01*
X4885273Y-15783311D01*
X4894796Y-15792835D01*
X4913844Y-15802359D01*
X4951939Y-15802359D01*
X4970987Y-15792835D01*
X4980511Y-15783311D01*
X4990035Y-15764263D01*
X4990035Y-15726168D01*
X4980511Y-15707121D01*
X4970987Y-15697597D01*
X4951939Y-15688073D01*
X5180511Y-15802359D02*
X5066225Y-15802359D01*
X5123368Y-15802359D02*
X5123368Y-15602359D01*
X5104320Y-15630930D01*
X5085273Y-15649978D01*
X5066225Y-15659502D01*
X5256701Y-15602359D02*
X5256701Y-15640454D01*
X5332892Y-15602359D02*
X5332892Y-15640454D01*
X5628130Y-15878549D02*
X5618606Y-15869025D01*
X5599558Y-15840454D01*
X5590035Y-15821406D01*
X5580511Y-15792835D01*
X5570987Y-15745216D01*
X5570987Y-15707121D01*
X5580511Y-15659502D01*
X5590035Y-15630930D01*
X5599558Y-15611883D01*
X5618606Y-15583311D01*
X5628130Y-15573787D01*
X5685273Y-15602359D02*
X5818606Y-15602359D01*
X5732892Y-15802359D01*
X5980511Y-15602359D02*
X5942415Y-15602359D01*
X5923368Y-15611883D01*
X5913844Y-15621406D01*
X5894796Y-15649978D01*
X5885273Y-15688073D01*
X5885273Y-15764263D01*
X5894796Y-15783311D01*
X5904320Y-15792835D01*
X5923368Y-15802359D01*
X5961463Y-15802359D01*
X5980511Y-15792835D01*
X5990034Y-15783311D01*
X5999558Y-15764263D01*
X5999558Y-15716644D01*
X5990034Y-15697597D01*
X5980511Y-15688073D01*
X5961463Y-15678549D01*
X5923368Y-15678549D01*
X5904320Y-15688073D01*
X5894796Y-15697597D01*
X5885273Y-15716644D01*
X6237653Y-15802359D02*
X6237653Y-15602359D01*
X6323368Y-15802359D02*
X6323368Y-15697597D01*
X6313844Y-15678549D01*
X6294796Y-15669025D01*
X6266225Y-15669025D01*
X6247177Y-15678549D01*
X6237653Y-15688073D01*
X6447177Y-15802359D02*
X6428130Y-15792835D01*
X6418606Y-15783311D01*
X6409082Y-15764263D01*
X6409082Y-15707121D01*
X6418606Y-15688073D01*
X6428130Y-15678549D01*
X6447177Y-15669025D01*
X6475749Y-15669025D01*
X6494796Y-15678549D01*
X6504320Y-15688073D01*
X6513844Y-15707121D01*
X6513844Y-15764263D01*
X6504320Y-15783311D01*
X6494796Y-15792835D01*
X6475749Y-15802359D01*
X6447177Y-15802359D01*
X6628130Y-15802359D02*
X6609082Y-15792835D01*
X6599558Y-15773787D01*
X6599558Y-15602359D01*
X6780511Y-15792835D02*
X6761463Y-15802359D01*
X6723368Y-15802359D01*
X6704320Y-15792835D01*
X6694796Y-15773787D01*
X6694796Y-15697597D01*
X6704320Y-15678549D01*
X6723368Y-15669025D01*
X6761463Y-15669025D01*
X6780511Y-15678549D01*
X6790034Y-15697597D01*
X6790034Y-15716644D01*
X6694796Y-15735692D01*
X6866225Y-15792835D02*
X6885273Y-15802359D01*
X6923368Y-15802359D01*
X6942415Y-15792835D01*
X6951939Y-15773787D01*
X6951939Y-15764263D01*
X6942415Y-15745216D01*
X6923368Y-15735692D01*
X6894796Y-15735692D01*
X6875749Y-15726168D01*
X6866225Y-15707121D01*
X6866225Y-15697597D01*
X6875749Y-15678549D01*
X6894796Y-15669025D01*
X6923368Y-15669025D01*
X6942415Y-15678549D01*
X7018606Y-15878549D02*
X7028130Y-15869025D01*
X7047177Y-15840454D01*
X7056701Y-15821406D01*
X7066225Y-15792835D01*
X7075749Y-15745216D01*
X7075749Y-15707121D01*
X7066225Y-15659502D01*
X7056701Y-15630930D01*
X7047177Y-15611883D01*
X7028130Y-15583311D01*
X7018606Y-15573787D01*
X7380511Y-15878549D02*
X7370987Y-15869025D01*
X7351939Y-15840454D01*
X7342415Y-15821406D01*
X7332892Y-15792835D01*
X7323368Y-15745216D01*
X7323368Y-15707121D01*
X7332892Y-15659502D01*
X7342415Y-15630930D01*
X7351939Y-15611883D01*
X7370987Y-15583311D01*
X7380511Y-15573787D01*
X7456701Y-15669025D02*
X7456701Y-15802359D01*
X7456701Y-15688073D02*
X7466225Y-15678549D01*
X7485273Y-15669025D01*
X7513844Y-15669025D01*
X7532892Y-15678549D01*
X7542415Y-15697597D01*
X7542415Y-15802359D01*
X7666225Y-15802359D02*
X7647177Y-15792835D01*
X7637653Y-15783311D01*
X7628130Y-15764263D01*
X7628130Y-15707121D01*
X7637653Y-15688073D01*
X7647177Y-15678549D01*
X7666225Y-15669025D01*
X7694796Y-15669025D01*
X7713844Y-15678549D01*
X7723368Y-15688073D01*
X7732892Y-15707121D01*
X7732892Y-15764263D01*
X7723368Y-15783311D01*
X7713844Y-15792835D01*
X7694796Y-15802359D01*
X7666225Y-15802359D01*
X7790034Y-15669025D02*
X7866225Y-15669025D01*
X7818606Y-15602359D02*
X7818606Y-15773787D01*
X7828130Y-15792835D01*
X7847177Y-15802359D01*
X7866225Y-15802359D01*
X8085273Y-15669025D02*
X8085273Y-15869025D01*
X8085273Y-15678549D02*
X8104320Y-15669025D01*
X8142415Y-15669025D01*
X8161463Y-15678549D01*
X8170987Y-15688073D01*
X8180511Y-15707121D01*
X8180511Y-15764263D01*
X8170987Y-15783311D01*
X8161463Y-15792835D01*
X8142415Y-15802359D01*
X8104320Y-15802359D01*
X8085273Y-15792835D01*
X8294796Y-15802359D02*
X8275749Y-15792835D01*
X8266225Y-15773787D01*
X8266225Y-15602359D01*
X8456701Y-15802359D02*
X8456701Y-15697597D01*
X8447177Y-15678549D01*
X8428130Y-15669025D01*
X8390035Y-15669025D01*
X8370987Y-15678549D01*
X8456701Y-15792835D02*
X8437654Y-15802359D01*
X8390035Y-15802359D01*
X8370987Y-15792835D01*
X8361463Y-15773787D01*
X8361463Y-15754740D01*
X8370987Y-15735692D01*
X8390035Y-15726168D01*
X8437654Y-15726168D01*
X8456701Y-15716644D01*
X8523368Y-15669025D02*
X8599558Y-15669025D01*
X8551939Y-15602359D02*
X8551939Y-15773787D01*
X8561463Y-15792835D01*
X8580511Y-15802359D01*
X8599558Y-15802359D01*
X8742415Y-15792835D02*
X8723368Y-15802359D01*
X8685273Y-15802359D01*
X8666225Y-15792835D01*
X8656701Y-15773787D01*
X8656701Y-15697597D01*
X8666225Y-15678549D01*
X8685273Y-15669025D01*
X8723368Y-15669025D01*
X8742415Y-15678549D01*
X8751939Y-15697597D01*
X8751939Y-15716644D01*
X8656701Y-15735692D01*
X8923368Y-15802359D02*
X8923368Y-15602359D01*
X8923368Y-15792835D02*
X8904320Y-15802359D01*
X8866225Y-15802359D01*
X8847177Y-15792835D01*
X8837654Y-15783311D01*
X8828130Y-15764263D01*
X8828130Y-15707121D01*
X8837654Y-15688073D01*
X8847177Y-15678549D01*
X8866225Y-15669025D01*
X8904320Y-15669025D01*
X8923368Y-15678549D01*
X8999558Y-15878549D02*
X9009082Y-15869025D01*
X9028130Y-15840454D01*
X9037654Y-15821406D01*
X9047177Y-15792835D01*
X9056701Y-15745216D01*
X9056701Y-15707121D01*
X9047177Y-15659502D01*
X9037654Y-15630930D01*
X9028130Y-15611883D01*
X9009082Y-15583311D01*
X8999558Y-15573787D01*
X1856225Y-15931883D02*
X2056225Y-16131883D01*
X2056225Y-15931883D02*
X1856225Y-16131883D01*
X2056225Y-16031883D02*
G75*
G03*
X2056225Y-16031883I-100000J0D01*
G01*
X2294796Y-15922359D02*
X2418606Y-15922359D01*
X2351939Y-15998549D01*
X2380511Y-15998549D01*
X2399558Y-16008073D01*
X2409082Y-16017597D01*
X2418606Y-16036644D01*
X2418606Y-16084263D01*
X2409082Y-16103311D01*
X2399558Y-16112835D01*
X2380511Y-16122359D01*
X2323368Y-16122359D01*
X2304320Y-16112835D01*
X2294796Y-16103311D01*
X2504320Y-16103311D02*
X2513844Y-16112835D01*
X2504320Y-16122359D01*
X2494796Y-16112835D01*
X2504320Y-16103311D01*
X2504320Y-16122359D01*
X2685273Y-15989025D02*
X2685273Y-16122359D01*
X2637654Y-15912835D02*
X2590035Y-16055692D01*
X2713844Y-16055692D01*
X2780511Y-15941406D02*
X2790035Y-15931883D01*
X2809082Y-15922359D01*
X2856701Y-15922359D01*
X2875749Y-15931883D01*
X2885273Y-15941406D01*
X2894796Y-15960454D01*
X2894796Y-15979502D01*
X2885273Y-16008073D01*
X2770987Y-16122359D01*
X2894796Y-16122359D01*
X2990034Y-16122359D02*
X3028130Y-16122359D01*
X3047177Y-16112835D01*
X3056701Y-16103311D01*
X3075749Y-16074740D01*
X3085273Y-16036644D01*
X3085273Y-15960454D01*
X3075749Y-15941406D01*
X3066225Y-15931883D01*
X3047177Y-15922359D01*
X3009082Y-15922359D01*
X2990034Y-15931883D01*
X2980511Y-15941406D01*
X2970987Y-15960454D01*
X2970987Y-16008073D01*
X2980511Y-16027121D01*
X2990034Y-16036644D01*
X3009082Y-16046168D01*
X3047177Y-16046168D01*
X3066225Y-16036644D01*
X3075749Y-16027121D01*
X3085273Y-16008073D01*
X3170987Y-16122359D02*
X3170987Y-15989025D01*
X3170987Y-16008073D02*
X3180511Y-15998549D01*
X3199558Y-15989025D01*
X3228130Y-15989025D01*
X3247177Y-15998549D01*
X3256701Y-16017597D01*
X3256701Y-16122359D01*
X3256701Y-16017597D02*
X3266225Y-15998549D01*
X3285273Y-15989025D01*
X3313844Y-15989025D01*
X3332892Y-15998549D01*
X3342415Y-16017597D01*
X3342415Y-16122359D01*
X3437653Y-16122359D02*
X3437653Y-15989025D01*
X3437653Y-16008073D02*
X3447177Y-15998549D01*
X3466225Y-15989025D01*
X3494796Y-15989025D01*
X3513844Y-15998549D01*
X3523368Y-16017597D01*
X3523368Y-16122359D01*
X3523368Y-16017597D02*
X3532892Y-15998549D01*
X3551939Y-15989025D01*
X3580511Y-15989025D01*
X3599558Y-15998549D01*
X3609082Y-16017597D01*
X3609082Y-16122359D01*
X3999558Y-15912835D02*
X3828130Y-16169978D01*
X4256701Y-15922359D02*
X4275749Y-15922359D01*
X4294796Y-15931883D01*
X4304320Y-15941406D01*
X4313844Y-15960454D01*
X4323368Y-15998549D01*
X4323368Y-16046168D01*
X4313844Y-16084263D01*
X4304320Y-16103311D01*
X4294796Y-16112835D01*
X4275749Y-16122359D01*
X4256701Y-16122359D01*
X4237654Y-16112835D01*
X4228130Y-16103311D01*
X4218606Y-16084263D01*
X4209082Y-16046168D01*
X4209082Y-15998549D01*
X4218606Y-15960454D01*
X4228130Y-15941406D01*
X4237654Y-15931883D01*
X4256701Y-15922359D01*
X4409082Y-16103311D02*
X4418606Y-16112835D01*
X4409082Y-16122359D01*
X4399558Y-16112835D01*
X4409082Y-16103311D01*
X4409082Y-16122359D01*
X4609082Y-16122359D02*
X4494796Y-16122359D01*
X4551939Y-16122359D02*
X4551939Y-15922359D01*
X4532892Y-15950930D01*
X4513844Y-15969978D01*
X4494796Y-15979502D01*
X4675749Y-15922359D02*
X4799558Y-15922359D01*
X4732892Y-15998549D01*
X4761463Y-15998549D01*
X4780511Y-16008073D01*
X4790035Y-16017597D01*
X4799558Y-16036644D01*
X4799558Y-16084263D01*
X4790035Y-16103311D01*
X4780511Y-16112835D01*
X4761463Y-16122359D01*
X4704320Y-16122359D01*
X4685273Y-16112835D01*
X4675749Y-16103311D01*
X4980511Y-15922359D02*
X4885273Y-15922359D01*
X4875749Y-16017597D01*
X4885273Y-16008073D01*
X4904320Y-15998549D01*
X4951939Y-15998549D01*
X4970987Y-16008073D01*
X4980511Y-16017597D01*
X4990035Y-16036644D01*
X4990035Y-16084263D01*
X4980511Y-16103311D01*
X4970987Y-16112835D01*
X4951939Y-16122359D01*
X4904320Y-16122359D01*
X4885273Y-16112835D01*
X4875749Y-16103311D01*
X5113844Y-15922359D02*
X5132892Y-15922359D01*
X5151939Y-15931883D01*
X5161463Y-15941406D01*
X5170987Y-15960454D01*
X5180511Y-15998549D01*
X5180511Y-16046168D01*
X5170987Y-16084263D01*
X5161463Y-16103311D01*
X5151939Y-16112835D01*
X5132892Y-16122359D01*
X5113844Y-16122359D01*
X5094796Y-16112835D01*
X5085273Y-16103311D01*
X5075749Y-16084263D01*
X5066225Y-16046168D01*
X5066225Y-15998549D01*
X5075749Y-15960454D01*
X5085273Y-15941406D01*
X5094796Y-15931883D01*
X5113844Y-15922359D01*
X5256701Y-15922359D02*
X5256701Y-15960454D01*
X5332892Y-15922359D02*
X5332892Y-15960454D01*
X5628130Y-16198549D02*
X5618606Y-16189025D01*
X5599558Y-16160454D01*
X5590035Y-16141406D01*
X5580511Y-16112835D01*
X5570987Y-16065216D01*
X5570987Y-16027121D01*
X5580511Y-15979502D01*
X5590035Y-15950930D01*
X5599558Y-15931883D01*
X5618606Y-15903311D01*
X5628130Y-15893787D01*
X5685273Y-15922359D02*
X5809082Y-15922359D01*
X5742415Y-15998549D01*
X5770987Y-15998549D01*
X5790034Y-16008073D01*
X5799558Y-16017597D01*
X5809082Y-16036644D01*
X5809082Y-16084263D01*
X5799558Y-16103311D01*
X5790034Y-16112835D01*
X5770987Y-16122359D01*
X5713844Y-16122359D01*
X5694796Y-16112835D01*
X5685273Y-16103311D01*
X5923368Y-16008073D02*
X5904320Y-15998549D01*
X5894796Y-15989025D01*
X5885273Y-15969978D01*
X5885273Y-15960454D01*
X5894796Y-15941406D01*
X5904320Y-15931883D01*
X5923368Y-15922359D01*
X5961463Y-15922359D01*
X5980511Y-15931883D01*
X5990034Y-15941406D01*
X5999558Y-15960454D01*
X5999558Y-15969978D01*
X5990034Y-15989025D01*
X5980511Y-15998549D01*
X5961463Y-16008073D01*
X5923368Y-16008073D01*
X5904320Y-16017597D01*
X5894796Y-16027121D01*
X5885273Y-16046168D01*
X5885273Y-16084263D01*
X5894796Y-16103311D01*
X5904320Y-16112835D01*
X5923368Y-16122359D01*
X5961463Y-16122359D01*
X5980511Y-16112835D01*
X5990034Y-16103311D01*
X5999558Y-16084263D01*
X5999558Y-16046168D01*
X5990034Y-16027121D01*
X5980511Y-16017597D01*
X5961463Y-16008073D01*
X6237653Y-16122359D02*
X6237653Y-15922359D01*
X6323368Y-16122359D02*
X6323368Y-16017597D01*
X6313844Y-15998549D01*
X6294796Y-15989025D01*
X6266225Y-15989025D01*
X6247177Y-15998549D01*
X6237653Y-16008073D01*
X6447177Y-16122359D02*
X6428130Y-16112835D01*
X6418606Y-16103311D01*
X6409082Y-16084263D01*
X6409082Y-16027121D01*
X6418606Y-16008073D01*
X6428130Y-15998549D01*
X6447177Y-15989025D01*
X6475749Y-15989025D01*
X6494796Y-15998549D01*
X6504320Y-16008073D01*
X6513844Y-16027121D01*
X6513844Y-16084263D01*
X6504320Y-16103311D01*
X6494796Y-16112835D01*
X6475749Y-16122359D01*
X6447177Y-16122359D01*
X6628130Y-16122359D02*
X6609082Y-16112835D01*
X6599558Y-16093787D01*
X6599558Y-15922359D01*
X6780511Y-16112835D02*
X6761463Y-16122359D01*
X6723368Y-16122359D01*
X6704320Y-16112835D01*
X6694796Y-16093787D01*
X6694796Y-16017597D01*
X6704320Y-15998549D01*
X6723368Y-15989025D01*
X6761463Y-15989025D01*
X6780511Y-15998549D01*
X6790034Y-16017597D01*
X6790034Y-16036644D01*
X6694796Y-16055692D01*
X6866225Y-16112835D02*
X6885273Y-16122359D01*
X6923368Y-16122359D01*
X6942415Y-16112835D01*
X6951939Y-16093787D01*
X6951939Y-16084263D01*
X6942415Y-16065216D01*
X6923368Y-16055692D01*
X6894796Y-16055692D01*
X6875749Y-16046168D01*
X6866225Y-16027121D01*
X6866225Y-16017597D01*
X6875749Y-15998549D01*
X6894796Y-15989025D01*
X6923368Y-15989025D01*
X6942415Y-15998549D01*
X7018606Y-16198549D02*
X7028130Y-16189025D01*
X7047177Y-16160454D01*
X7056701Y-16141406D01*
X7066225Y-16112835D01*
X7075749Y-16065216D01*
X7075749Y-16027121D01*
X7066225Y-15979502D01*
X7056701Y-15950930D01*
X7047177Y-15931883D01*
X7028130Y-15903311D01*
X7018606Y-15893787D01*
X7380511Y-16198549D02*
X7370987Y-16189025D01*
X7351939Y-16160454D01*
X7342415Y-16141406D01*
X7332892Y-16112835D01*
X7323368Y-16065216D01*
X7323368Y-16027121D01*
X7332892Y-15979502D01*
X7342415Y-15950930D01*
X7351939Y-15931883D01*
X7370987Y-15903311D01*
X7380511Y-15893787D01*
X7456701Y-15989025D02*
X7456701Y-16122359D01*
X7456701Y-16008073D02*
X7466225Y-15998549D01*
X7485273Y-15989025D01*
X7513844Y-15989025D01*
X7532892Y-15998549D01*
X7542415Y-16017597D01*
X7542415Y-16122359D01*
X7666225Y-16122359D02*
X7647177Y-16112835D01*
X7637653Y-16103311D01*
X7628130Y-16084263D01*
X7628130Y-16027121D01*
X7637653Y-16008073D01*
X7647177Y-15998549D01*
X7666225Y-15989025D01*
X7694796Y-15989025D01*
X7713844Y-15998549D01*
X7723368Y-16008073D01*
X7732892Y-16027121D01*
X7732892Y-16084263D01*
X7723368Y-16103311D01*
X7713844Y-16112835D01*
X7694796Y-16122359D01*
X7666225Y-16122359D01*
X7790034Y-15989025D02*
X7866225Y-15989025D01*
X7818606Y-15922359D02*
X7818606Y-16093787D01*
X7828130Y-16112835D01*
X7847177Y-16122359D01*
X7866225Y-16122359D01*
X8085273Y-15989025D02*
X8085273Y-16189025D01*
X8085273Y-15998549D02*
X8104320Y-15989025D01*
X8142415Y-15989025D01*
X8161463Y-15998549D01*
X8170987Y-16008073D01*
X8180511Y-16027121D01*
X8180511Y-16084263D01*
X8170987Y-16103311D01*
X8161463Y-16112835D01*
X8142415Y-16122359D01*
X8104320Y-16122359D01*
X8085273Y-16112835D01*
X8294796Y-16122359D02*
X8275749Y-16112835D01*
X8266225Y-16093787D01*
X8266225Y-15922359D01*
X8456701Y-16122359D02*
X8456701Y-16017597D01*
X8447177Y-15998549D01*
X8428130Y-15989025D01*
X8390035Y-15989025D01*
X8370987Y-15998549D01*
X8456701Y-16112835D02*
X8437654Y-16122359D01*
X8390035Y-16122359D01*
X8370987Y-16112835D01*
X8361463Y-16093787D01*
X8361463Y-16074740D01*
X8370987Y-16055692D01*
X8390035Y-16046168D01*
X8437654Y-16046168D01*
X8456701Y-16036644D01*
X8523368Y-15989025D02*
X8599558Y-15989025D01*
X8551939Y-15922359D02*
X8551939Y-16093787D01*
X8561463Y-16112835D01*
X8580511Y-16122359D01*
X8599558Y-16122359D01*
X8742415Y-16112835D02*
X8723368Y-16122359D01*
X8685273Y-16122359D01*
X8666225Y-16112835D01*
X8656701Y-16093787D01*
X8656701Y-16017597D01*
X8666225Y-15998549D01*
X8685273Y-15989025D01*
X8723368Y-15989025D01*
X8742415Y-15998549D01*
X8751939Y-16017597D01*
X8751939Y-16036644D01*
X8656701Y-16055692D01*
X8923368Y-16122359D02*
X8923368Y-15922359D01*
X8923368Y-16112835D02*
X8904320Y-16122359D01*
X8866225Y-16122359D01*
X8847177Y-16112835D01*
X8837654Y-16103311D01*
X8828130Y-16084263D01*
X8828130Y-16027121D01*
X8837654Y-16008073D01*
X8847177Y-15998549D01*
X8866225Y-15989025D01*
X8904320Y-15989025D01*
X8923368Y-15998549D01*
X8999558Y-16198549D02*
X9009082Y-16189025D01*
X9028130Y-16160454D01*
X9037654Y-16141406D01*
X9047177Y-16112835D01*
X9056701Y-16065216D01*
X9056701Y-16027121D01*
X9047177Y-15979502D01*
X9037654Y-15950930D01*
X9028130Y-15931883D01*
X9009082Y-15903311D01*
X8999558Y-15893787D01*
M02*
